<?xml version="1.0" encoding="UTF-8"?>
<!DOCTYPE svg PUBLIC "-//W3C//DTD SVG 1.1//EN" "http://www.w3.org/Graphics/SVG/1.1/DTD/svg11.dtd">
<!-- Creator: CorelDRAW X7 -->
<svg xmlns="http://www.w3.org/2000/svg" xml:space="preserve" width="92.7806mm" height="10.2306mm" version="1.1" style="shape-rendering:geometricPrecision; text-rendering:geometricPrecision; image-rendering:optimizeQuality; fill-rule:evenodd; clip-rule:evenodd"
viewBox="0 0 9278 1023"
 xmlns:xlink="http://www.w3.org/1999/xlink">
 <defs>
  <style type="text/css">
   <![CDATA[
    .fil0 {fill:#2196F3}
    .fil2 {fill:#40C4FF}
    .fil1 {fill:#FFA000}
    .fil8 {fill:#FFB300}
    .fil3 {fill:#FFC107}
    .fil9 {fill:#FFCA28}
    .fil4 {fill:#FFD54F}
    .fil5 {fill:#FFE082}
    .fil6 {fill:#FFECB3}
    .fil7 {fill:#FFF8E1}
   ]]>
  </style>
 </defs>
 <g id="Layer_x0020_1">
  <metadata id="CorelCorpID_0Corel-Layer"/>
  <path class="fil0" d="M1501 277l263 0c10,0 18,3 24,8 6,6 9,13 9,22 0,9 -3,16 -9,22 -6,5 -14,8 -24,8l-203 0 0 92 144 0c10,0 18,3 24,8 6,6 9,13 9,22 0,9 -3,16 -9,22 -6,5 -14,8 -24,8l-144 0 0 219c0,10 -3,18 -8,24 -6,6 -13,10 -22,10 -9,0 -16,-4 -22,-10 -6,-6 -8,-14 -8,-24l0 -431z"/>
  <path class="fil0" d="M2007 403l82 0c10,0 18,3 24,9 6,5 9,12 9,21l0 248 56 0c9,0 17,3 23,9 6,5 9,12 9,21 0,9 -3,17 -9,22 -6,6 -14,9 -23,9l-171 0c-10,0 -18,-3 -25,-9 -6,-5 -9,-13 -9,-22 0,-8 3,-16 10,-21 6,-6 14,-9 24,-9l54 0 0 -218 -54 0c-11,0 -19,-2 -25,-8 -6,-5 -9,-13 -9,-22 0,-8 3,-15 10,-21 6,-6 14,-9 24,-9zm58 -151l30 0c7,0 13,3 19,9 5,6 8,13 8,21l0 25c0,9 -3,16 -9,22 -7,5 -15,8 -24,8l-24 0c-10,0 -18,-2 -24,-8 -6,-5 -9,-13 -9,-22l0 -25c0,-9 3,-16 9,-22 6,-5 14,-8 24,-8z"/>
  <path class="fil0" d="M2450 277l82 0c10,0 18,3 24,8 6,6 9,13 9,22l0 374 56 0c9,0 17,3 23,9 6,5 9,12 9,21 0,9 -3,17 -9,22 -6,6 -14,9 -23,9l-171 0c-10,0 -18,-3 -25,-9 -6,-5 -9,-13 -9,-22 0,-8 3,-16 10,-21 6,-6 14,-9 24,-9l54 0 0 -344 -54 0c-11,0 -19,-2 -25,-8 -6,-5 -9,-13 -9,-22 0,-9 3,-16 10,-22 6,-5 14,-8 24,-8z"/>
  <path class="fil0" d="M2945 463c-3,0 -6,0 -9,2 -3,1 -6,3 -10,5l-25 21c-3,3 -6,6 -8,10 -2,4 -3,9 -3,13l0 40 176 0 0 -40c0,-4 -1,-9 -3,-13 -2,-4 -4,-7 -7,-9l-26 -22c-3,-2 -7,-4 -10,-5 -3,-2 -6,-2 -9,-2l-66 0zm0 -60l66 0c10,0 20,2 30,6 10,3 19,8 27,15l26 21c10,8 18,18 24,31 6,12 9,25 9,38l0 71c0,9 -4,16 -10,22 -6,5 -14,8 -24,8l-203 0 0 16c0,4 1,8 3,12 2,4 5,8 8,10l25 22c3,2 6,4 9,5 3,1 6,1 10,1l148 0c10,0 18,3 24,9 6,5 10,13 10,21 0,9 -4,17 -10,22 -6,6 -14,9 -24,9l-148 0c-10,0 -20,-2 -30,-6 -9,-3 -18,-8 -27,-15l-26 -22c-10,-8 -18,-18 -24,-30 -5,-13 -8,-25 -8,-38l0 -117c0,-13 3,-26 8,-38 6,-13 14,-23 24,-31l26 -21c9,-7 18,-12 27,-16 10,-3 20,-5 30,-5z"/>
  <path class="fil1" d="M3438 315l0 176 153 0c9,0 16,-3 22,-9 6,-7 10,-14 10,-22l0 -113c0,-8 -4,-16 -10,-22 -6,-6 -13,-10 -22,-10l-153 0zm-64 -63l217 0c26,0 48,9 67,28 19,19 29,41 29,67l0 113c0,26 -9,49 -28,67 -19,19 -42,29 -68,29l-153 0 0 150c0,11 -3,19 -9,26 -6,6 -14,10 -23,10 -10,0 -17,-4 -23,-10 -6,-7 -9,-16 -9,-26l0 -454z"/>
  <path class="fil1" d="M3905 420l0 33 52 -46c8,-7 18,-12 28,-16 11,-4 22,-6 33,-6l41 0c26,0 48,9 67,28 18,18 28,40 28,66l0 14c0,11 -3,19 -9,26 -6,6 -14,9 -23,9 -9,0 -17,-3 -23,-9 -6,-7 -9,-16 -9,-26l0 -14c0,-8 -3,-16 -9,-22 -6,-6 -13,-9 -22,-9l-41 0c-4,0 -8,1 -12,2 -5,2 -8,4 -11,7l-90 80 0 169c0,11 -3,19 -9,26 -6,6 -14,10 -23,10 -10,0 -17,-4 -23,-10 -6,-7 -9,-16 -9,-26l0 -286c0,-11 3,-19 9,-26 6,-6 13,-9 23,-9 9,0 17,3 23,10 6,6 9,15 9,25z"/>
  <path class="fil1" d="M4430 448c-4,0 -7,0 -10,2 -3,1 -7,3 -10,5l-27 23c-4,3 -6,6 -8,10 -3,5 -4,9 -4,14l0 42 186 0 0 -42c0,-5 -1,-9 -3,-14 -2,-4 -5,-7 -8,-10l-27 -23c-4,-2 -7,-4 -10,-5 -3,-2 -7,-2 -10,-2l-69 0zm-1 -63l70 0c11,0 21,2 32,6 10,4 20,9 29,16l27 22c10,8 18,19 25,32 6,13 9,27 9,41l0 75c0,9 -4,17 -10,23 -7,6 -15,9 -26,9l-214 0 0 16c0,5 1,9 4,13 2,4 4,8 8,10l27 23c3,3 6,4 9,5 3,2 7,2 11,2l155 0c11,0 19,3 26,9 6,6 10,13 10,23 0,9 -4,17 -10,23 -7,6 -15,9 -26,9l-156 0c-11,0 -21,-2 -31,-6 -10,-4 -20,-9 -29,-16l-27 -23c-11,-9 -19,-19 -25,-32 -6,-13 -9,-26 -9,-40l0 -123c0,-14 3,-28 9,-41 6,-13 14,-24 25,-32l27 -22c9,-7 19,-13 29,-17 10,-3 20,-5 31,-5z"/>
  <path class="fil1" d="M4841 252l87 0c10,0 19,3 25,9 7,6 10,13 10,23l0 394 58 0c11,0 19,3 25,9 7,6 10,13 10,23 0,9 -3,17 -10,23 -6,6 -15,9 -25,9l-180 0c-10,0 -19,-3 -25,-9 -7,-6 -10,-14 -10,-23 0,-10 3,-17 10,-23 7,-6 15,-9 25,-9l58 0 0 -363 -58 0c-11,0 -19,-2 -25,-8 -7,-6 -10,-14 -10,-23 0,-10 3,-17 10,-23 7,-6 15,-9 25,-9z"/>
  <path class="fil1" d="M5364 448c-4,0 -7,0 -10,2 -3,1 -7,3 -10,5l-27 23c-4,3 -6,6 -8,10 -3,5 -4,9 -4,13l0 124c0,5 1,9 4,13 2,4 4,8 8,11l27 22c3,3 6,4 9,5 4,2 7,2 11,2l69 0c3,0 7,-1 10,-2 4,-1 7,-3 10,-5l27 -22c3,-3 6,-6 8,-11 2,-4 3,-9 3,-13l0 -124c0,-4 -1,-8 -3,-13 -2,-4 -5,-7 -8,-10l-27 -23c-4,-2 -7,-4 -10,-5 -4,-2 -7,-2 -10,-2l-69 0zm-1 -63l70 0c11,0 21,2 32,6 10,4 20,9 28,16l28 22c10,8 18,19 24,32 7,13 10,27 10,40l0 124c0,14 -3,27 -9,40 -6,13 -15,23 -25,32l-28 23c-8,7 -18,12 -28,16 -11,4 -21,6 -32,6l-70 0c-11,0 -21,-2 -31,-6 -10,-4 -20,-9 -29,-16l-27 -23c-11,-9 -19,-19 -25,-32 -6,-13 -9,-26 -9,-40l0 -124c0,-13 3,-27 9,-40 6,-13 14,-24 25,-32l27 -22c9,-7 19,-13 29,-17 10,-3 20,-5 31,-5z"/>
  <path class="fil1" d="M5803 581c-8,0 -15,3 -21,10 -7,6 -10,13 -10,21l0 36c0,8 3,15 9,21 6,6 14,9 22,9l85 0 68 -38 -1 -28c0,-9 -3,-16 -9,-22 -6,-6 -13,-9 -22,-9l-121 0zm3 -196l113 0c25,0 47,9 65,27 19,17 28,40 29,67l9 226 0 2c0,10 -3,18 -9,25 -6,6 -14,10 -22,10 -9,0 -16,-3 -22,-9 -6,-5 -9,-13 -11,-23l-37 23c-3,2 -8,4 -13,6 -6,2 -10,3 -15,3l-90 0c-26,0 -48,-10 -66,-28 -19,-18 -28,-40 -28,-66l0 -36c0,-25 9,-48 28,-66 19,-19 41,-28 66,-28l121 0c6,0 10,0 15,1 4,1 9,2 13,4l-2 -44c-1,-10 -4,-17 -9,-22 -6,-6 -13,-9 -22,-9l-113 0c-10,0 -19,-2 -25,-8 -6,-6 -9,-14 -9,-23 0,-10 4,-17 10,-23 6,-6 14,-9 24,-9z"/>
  <path class="fil1" d="M6291 448c-6,0 -13,3 -20,9 -1,0 -1,0 -1,1l-21 16c-3,2 -5,5 -7,9 -2,4 -3,8 -3,12l0 135c0,5 1,9 3,13 2,4 4,7 7,9l21 17c0,0 0,0 0,1 8,5 15,8 21,8l49 0c4,0 8,-1 11,-2 4,-2 8,-4 11,-7l54 -44c2,-2 4,-5 6,-9 2,-4 2,-8 2,-13l0 -81c0,-4 0,-8 -2,-12 -2,-4 -4,-7 -6,-9l-54 -43c-3,-4 -7,-6 -10,-7 -4,-2 -7,-3 -12,-3l-49 0zm198 -161l0 419c0,10 -3,19 -10,26 -6,6 -14,10 -23,10 -9,0 -17,-4 -23,-10 -6,-6 -9,-15 -9,-26l0 -7 -23 21c-8,7 -17,12 -28,16 -11,4 -22,6 -33,6l-49 0c-10,0 -21,-2 -31,-6 -10,-4 -20,-9 -29,-16l-22 -17c-10,-8 -19,-19 -25,-32 -6,-13 -9,-26 -9,-41l0 -137c0,-12 3,-25 10,-38 6,-14 14,-24 24,-31l22 -17c9,-7 19,-13 29,-17 10,-3 20,-5 31,-5l49 0c11,0 22,2 33,6 11,4 20,9 28,16l23 20 0 -140c0,-10 3,-18 9,-25 6,-7 14,-10 23,-10 9,0 17,3 23,10 7,6 10,15 10,25z"/>
  <path class="fil1" d="M6765 448c-4,0 -7,0 -10,2 -4,1 -7,3 -10,5l-27 23c-4,3 -7,6 -9,10 -2,5 -3,9 -3,14l0 42 186 0 0 -42c0,-5 -1,-9 -3,-14 -2,-4 -5,-7 -8,-10l-28 -23c-3,-2 -6,-4 -9,-5 -4,-2 -7,-2 -10,-2l-69 0zm-1 -63l70 0c10,0 21,2 31,6 11,4 20,9 29,16l28 22c10,8 18,19 24,32 7,13 10,27 10,41l0 75c0,9 -4,17 -10,23 -7,6 -15,9 -26,9l-214 0 0 16c0,5 1,9 3,13 2,4 5,8 9,10l27 23c3,3 6,4 9,5 3,2 6,2 11,2l155 0c11,0 19,3 26,9 6,6 10,13 10,23 0,9 -4,17 -10,23 -7,6 -15,9 -26,9l-156 0c-11,0 -21,-2 -31,-6 -10,-4 -20,-9 -29,-16l-27 -23c-11,-9 -19,-19 -25,-32 -6,-13 -9,-26 -9,-40l0 -123c0,-14 3,-28 9,-41 6,-13 14,-24 25,-32l27 -22c9,-7 19,-13 29,-17 10,-3 20,-5 31,-5z"/>
  <path class="fil1" d="M7173 420l0 33 53 -46c8,-7 17,-12 28,-16 11,-4 22,-6 32,-6l42 0c26,0 48,9 67,28 18,18 28,40 28,66l0 14c0,11 -3,19 -9,26 -6,6 -14,9 -23,9 -10,0 -17,-3 -23,-9 -6,-7 -9,-16 -9,-26l0 -14c0,-8 -3,-16 -9,-22 -6,-6 -14,-9 -22,-9l-42 0c-3,0 -7,1 -12,2 -4,2 -8,4 -10,7l-91 80 0 169c0,11 -3,19 -9,26 -5,6 -13,10 -22,10 -10,0 -17,-4 -23,-10 -6,-7 -9,-16 -9,-26l0 -286c0,-11 3,-19 8,-26 6,-6 14,-9 24,-9 9,0 17,3 22,10 6,6 9,15 9,25z"/>
  <path class="fil0" d="M7700 282l0 188 108 0c5,0 10,1 13,4 3,3 5,7 5,11 0,5 -2,8 -5,11 -4,3 -8,4 -13,4l-140 0 0 -218c0,-5 1,-10 4,-13 3,-3 7,-4 12,-4 4,0 8,1 11,5 3,3 5,7 5,12z"/>
  <path class="fil0" d="M7937 329l44 0c6,0 10,1 13,4 3,3 5,7 5,11l0 126 30 0c5,0 9,1 12,4 4,3 5,7 5,11 0,5 -1,8 -5,11 -3,3 -7,4 -12,4l-92 0c-5,0 -9,-1 -12,-4 -4,-3 -5,-6 -5,-11 0,-4 1,-8 5,-11 3,-3 7,-4 12,-4l30 0 0 -111 -30 0c-5,0 -9,-1 -13,-4 -3,-3 -4,-6 -4,-11 0,-4 1,-8 5,-11 3,-3 7,-4 12,-4zm32 -77l16 0c3,0 6,2 10,5 3,3 4,6 4,10l0 13c0,4 -2,8 -5,11 -3,3 -8,4 -13,4l-12 0c-6,0 -10,-1 -13,-4 -3,-3 -5,-6 -5,-11l0 -13c0,-4 2,-8 5,-11 3,-3 8,-4 13,-4z"/>
  <path class="fil0" d="M8215 359c-2,0 -4,1 -6,1 -2,1 -4,2 -5,4l-28 20c-1,1 -2,3 -2,5 -1,2 -2,4 -2,6l0 39c0,2 1,4 2,6 0,2 1,4 3,4l27 21c2,2 4,3 5,4 2,0 4,1 6,1l25 0c1,0 3,0 5,-1 1,-1 3,-2 6,-3l10 -9c2,-1 3,-2 4,-4 1,-2 1,-4 1,-6l0 -65c0,-2 0,-4 -1,-6 -1,-2 -2,-3 -4,-4l-10 -8c-2,-2 -4,-3 -6,-4 -1,0 -3,-1 -5,-1l-25 0zm-43 -77l0 67 12 -10c4,-3 9,-6 14,-7 6,-2 11,-3 17,-3l25 0c5,0 11,1 16,2 5,2 10,5 15,8l10 8c5,4 9,9 13,15 3,7 5,13 5,19l0 66c0,6 -2,13 -5,19 -4,7 -8,12 -13,16l-10 8c-5,3 -10,6 -15,8 -5,1 -11,2 -16,2l-25 0c-6,0 -11,-1 -17,-2 -5,-2 -10,-5 -14,-8l-12 -10 0 3c0,5 -1,10 -4,13 -3,3 -7,4 -12,4 -4,0 -8,-1 -11,-4 -3,-4 -5,-8 -5,-13l0 -201c0,-5 2,-10 5,-13 3,-3 7,-4 11,-4 5,0 9,1 12,5 3,3 4,7 4,12z"/>
  <path class="fil0" d="M8409 346l0 16 26 -23c4,-3 9,-6 15,-7 5,-2 11,-3 16,-3l21 0c13,0 24,4 34,13 9,9 14,20 14,32l0 7c0,5 -1,9 -4,12 -3,3 -7,5 -12,5 -5,0 -9,-2 -12,-5 -3,-3 -4,-7 -4,-12l0 -7c0,-4 -2,-8 -5,-11 -3,-3 -7,-4 -11,-4l-21 0c-2,0 -4,0 -6,1 -2,1 -4,2 -5,3l-46 39 0 81c0,5 -2,10 -5,13 -3,3 -7,4 -11,4 -5,0 -9,-1 -12,-4 -3,-4 -4,-8 -4,-13l0 -137c0,-6 1,-10 4,-13 3,-3 7,-4 12,-4 4,0 8,1 11,4 3,4 5,8 5,13z"/>
  <path class="fil0" d="M8660 423c-3,0 -7,2 -10,5 -3,3 -5,6 -5,10l0 17c0,4 2,8 5,10 3,3 7,5 11,5l43 0 34 -19 0 -13c0,-4 -2,-8 -5,-11 -3,-2 -7,-4 -11,-4l-62 0zm2 -94l57 0c13,0 24,4 34,13 9,8 14,19 14,32l4 109 0 1c0,4 -1,8 -4,12 -3,3 -7,4 -11,4 -5,0 -8,-1 -11,-4 -3,-2 -5,-6 -6,-11l-18 11c-2,1 -5,2 -7,3 -3,1 -5,1 -8,1l-45 0c-13,0 -25,-4 -34,-13 -9,-9 -14,-19 -14,-32l0 -17c0,-12 5,-23 14,-32 10,-9 21,-13 34,-13l61 0c3,0 5,0 7,0 3,1 5,1 7,2l-1 -21c0,-5 -2,-8 -5,-11 -2,-2 -6,-4 -11,-4l-57 0c-5,0 -9,-1 -12,-4 -3,-3 -5,-6 -5,-11 0,-4 2,-8 5,-11 3,-3 7,-4 12,-4z"/>
  <path class="fil0" d="M8882 346l0 16 26 -23c4,-3 9,-6 15,-7 5,-2 11,-3 16,-3l21 0c13,0 24,4 34,13 9,9 14,20 14,32l0 7c0,5 -2,9 -5,12 -3,3 -7,5 -11,5 -5,0 -9,-2 -12,-5 -3,-3 -4,-7 -4,-12l0 -7c0,-4 -2,-8 -5,-11 -3,-3 -7,-4 -11,-4l-21 0c-2,0 -4,0 -6,1 -2,1 -4,2 -6,3l-45 39 0 81c0,5 -2,10 -5,13 -3,3 -7,4 -12,4 -4,0 -8,-1 -11,-4 -3,-4 -5,-8 -5,-13l0 -137c0,-6 2,-10 5,-13 3,-3 7,-4 11,-4 5,0 9,1 12,4 3,4 5,8 5,13z"/>
  <path class="fil0" d="M9118 346l0 19 42 92 10 0 42 -92 0 -19c0,-5 1,-9 4,-13 3,-3 7,-4 12,-4 5,0 9,1 12,4 3,3 4,7 4,13l0 22c0,1 0,3 0,4 -1,1 -1,3 -2,5l-82 180c-2,2 -4,4 -7,5 -3,2 -6,2 -9,2l-41 0c-5,0 -9,-1 -12,-4 -4,-3 -5,-6 -5,-11 0,-4 1,-8 5,-11 3,-3 7,-4 12,-4l32 0 21 -46 -5 0c-4,0 -7,-1 -10,-2 -3,-2 -5,-4 -6,-6l-47 -103c-1,-2 -1,-3 -2,-4 0,-2 0,-3 0,-5l0 -22c0,-6 1,-10 4,-13 3,-3 7,-4 12,-4 5,0 8,1 11,4 3,4 5,8 5,13z"/>
  <path class="fil2" d="M233 7l195 0c101,0 187,71 206,164l200 0c231,0 420,184 420,409l0 0c0,225 -189,410 -420,410l-391 0c-231,0 -420,-185 -420,-410l0 0c0,-137 0,-239 0,-368l0 0c0,-112 94,-205 210,-205z"/>
  <path class="fil0" d="M432 239l413 0c187,0 341,154 341,341l0 0c0,188 -154,341 -341,341l-413 0c-188,0 -341,-153 -341,-341l0 0c0,-187 153,-341 341,-341z"/>
  <path class="fil1" d="M663 377c46,-41 105,-66 166,-69l0 63c-46,3 -88,22 -121,50l-45 -44z"/>
  <path class="fil3" d="M641 762c-41,-46 -66,-104 -69,-166l63 0c4,46 22,88 50,121l-44 45z"/>
  <path class="fil4" d="M1026 784c-46,41 -104,65 -166,69l0 -63c46,-4 88,-22 121,-50l45 44z"/>
  <path class="fil5" d="M1117 596c-3,61 -28,120 -69,166l-44 -45c28,-33 47,-75 50,-121l63 0z"/>
  <path class="fil6" d="M1048 399c41,46 65,104 69,165l-63 0c-3,-46 -22,-88 -50,-121l44 -44z"/>
  <path class="fil7" d="M860 308c62,3 120,28 166,68l-45 45c-33,-28 -75,-47 -121,-50l0 -63z"/>
  <path class="fil8" d="M641 399c-41,46 -65,104 -69,166l63 0c4,-47 22,-89 50,-122l-44 -44z"/>
  <path class="fil9" d="M663 784c46,41 105,65 166,69l0 -63c-46,-4 -88,-22 -121,-50l-45 44z"/>
 </g>
</svg>
