<?xml version="1.0" encoding="UTF-8"?>
<!DOCTYPE svg PUBLIC "-//W3C//DTD SVG 1.1//EN" "http://www.w3.org/Graphics/SVG/1.1/DTD/svg11.dtd">
<!-- Creator: CorelDRAW X7 -->
<svg xmlns="http://www.w3.org/2000/svg" xml:space="preserve" width="210mm" height="297mm" version="1.1" style="shape-rendering:geometricPrecision; text-rendering:geometricPrecision; image-rendering:optimizeQuality; fill-rule:evenodd; clip-rule:evenodd"
viewBox="0 0 21000 29700"
 xmlns:xlink="http://www.w3.org/1999/xlink">
 <defs>
  <style type="text/css">
   <![CDATA[
    .fil0 {fill:#2196F3}
    .fil2 {fill:#40C4FF}
    .fil1 {fill:#FFA000}
    .fil8 {fill:#FFB300}
    .fil3 {fill:#FFC107}
    .fil9 {fill:#FFCA28}
    .fil4 {fill:#FFD54F}
    .fil5 {fill:#FFE082}
    .fil6 {fill:#FFECB3}
    .fil7 {fill:#FFF8E1}
   ]]>
  </style>
 </defs>
 <g id="Layer_x0020_1">
  <metadata id="CorelCorpID_0Corel-Layer"/>
  <path class="fil0" d="M5769 13291l263 0c11,0 19,2 25,8 6,6 9,13 9,22 0,8 -3,16 -9,21 -7,6 -15,9 -25,9l-202 0 0 92 144 0c10,0 17,2 23,8 7,6 10,13 10,22 0,9 -4,16 -10,21 -6,6 -14,9 -23,9l-144 0 0 219c0,10 -3,18 -9,24 -5,6 -13,9 -22,9 -8,0 -16,-3 -21,-9 -6,-7 -9,-15 -9,-24l0 -431z"/>
  <path class="fil0" d="M6275 13417l82 0c10,0 18,3 24,8 7,6 10,13 10,22l0 248 55 0c10,0 18,3 24,8 6,6 9,13 9,22 0,9 -3,16 -9,22 -6,5 -14,8 -24,8l-171 0c-10,0 -18,-3 -24,-8 -6,-6 -9,-13 -9,-22 0,-9 3,-16 9,-22 7,-5 15,-8 24,-8l55 0 0 -218 -55 0c-10,0 -18,-3 -24,-8 -6,-6 -9,-13 -9,-22 0,-9 3,-16 9,-22 7,-5 15,-8 24,-8zm59 -151l29 0c7,0 13,3 19,9 6,6 9,13 9,21l0 25c0,9 -3,16 -10,21 -6,6 -14,9 -24,9l-23 0c-10,0 -18,-3 -24,-8 -6,-6 -9,-13 -9,-22l0 -25c0,-9 3,-16 9,-22 6,-6 14,-8 24,-8z"/>
  <path class="fil0" d="M6718 13291l82 0c10,0 18,2 25,8 6,6 9,13 9,22l0 374 55 0c10,0 18,3 24,8 6,6 9,13 9,22 0,9 -3,16 -9,22 -6,5 -14,8 -24,8l-171 0c-10,0 -18,-3 -24,-8 -6,-6 -9,-13 -9,-22 0,-9 3,-16 9,-22 7,-5 15,-8 24,-8l55 0 0 -344 -55 0c-10,0 -18,-3 -24,-8 -6,-6 -9,-13 -9,-22 0,-9 3,-16 9,-22 7,-6 15,-8 24,-8z"/>
  <path class="fil0" d="M7214 13476c-3,0 -6,1 -9,2 -3,2 -7,3 -10,6l-26 21c-3,3 -5,6 -7,10 -2,4 -3,8 -3,12l0 41 176 0 0 -41c0,-4 -1,-8 -3,-12 -2,-4 -4,-7 -8,-10l-26 -21c-3,-3 -6,-4 -9,-6 -3,-1 -6,-2 -9,-2l-66 0zm-1 -59l67 0c10,0 20,2 30,5 10,4 19,9 27,16l26 21c10,8 18,18 23,30 6,13 9,25 9,38l0 72c0,9 -3,16 -9,21 -7,6 -15,9 -24,9l-203 0 0 16c0,4 1,8 3,12 2,4 4,7 7,10l26 22c3,2 6,3 9,4 3,1 6,2 10,2l148 0c10,0 18,3 24,8 6,6 9,13 9,22 0,9 -3,16 -9,22 -7,5 -15,8 -24,8l-149 0c-10,0 -20,-2 -29,-5 -10,-4 -19,-9 -28,-16l-25 -21c-10,-8 -18,-19 -24,-31 -6,-12 -9,-24 -9,-37l0 -118c0,-13 3,-25 9,-38 6,-12 14,-22 24,-30l25 -21c9,-7 18,-12 28,-16 9,-3 19,-5 29,-5z"/>
  <path class="fil1" d="M7706 13329l0 176 153 0c9,0 17,-3 23,-10 6,-6 9,-13 9,-22l0 -112c0,-9 -3,-16 -9,-22 -6,-7 -14,-10 -23,-10l-153 0zm-63 -63l216 0c27,0 49,9 68,28 19,18 28,41 28,67l0 112c0,27 -9,49 -28,68 -18,19 -41,28 -68,28l-153 0 0 151c0,10 -3,19 -9,25 -6,7 -13,10 -23,10 -9,0 -17,-3 -22,-10 -6,-7 -9,-15 -9,-25l0 -454z"/>
  <path class="fil1" d="M8173 13434l0 33 53 -46c8,-7 17,-13 28,-17 11,-3 22,-5 32,-5l42 0c26,0 48,9 67,27 18,19 27,41 27,66l0 15c0,10 -2,19 -8,25 -6,7 -14,10 -23,10 -10,0 -17,-3 -23,-10 -6,-7 -9,-15 -9,-25l0 -15c0,-8 -3,-15 -9,-21 -6,-7 -14,-10 -22,-10l-42 0c-3,0 -7,1 -12,3 -4,2 -8,4 -10,6l-91 81 0 169c0,10 -3,19 -9,25 -6,7 -13,10 -23,10 -9,0 -17,-3 -23,-10 -5,-7 -8,-15 -8,-25l0 -286c0,-11 3,-20 8,-26 6,-6 14,-9 23,-9 10,0 17,3 23,9 6,7 9,15 9,26z"/>
  <path class="fil1" d="M8698 13461c-3,0 -6,1 -9,2 -4,2 -7,4 -11,6l-26 22c-4,3 -7,7 -9,11 -2,4 -3,9 -3,13l0 43 186 0 0 -43c0,-4 -1,-9 -3,-13 -2,-4 -5,-8 -8,-10l-28 -23c-3,-2 -6,-4 -10,-6 -3,-1 -6,-2 -9,-2l-70 0zm0 -62l70 0c10,0 21,1 31,5 11,4 20,10 29,17l27 21c11,9 19,20 25,33 6,13 9,26 9,40l0 76c0,9 -3,16 -10,22 -6,6 -15,9 -25,9l-214 0 0 17c0,4 1,9 3,13 2,4 5,7 9,10l26 23c3,2 6,4 9,5 4,1 7,2 11,2l156 0c11,0 19,3 26,8 6,6 9,14 9,23 0,10 -3,17 -10,23 -6,6 -15,9 -25,9l-156 0c-11,0 -21,-2 -31,-5 -10,-4 -20,-10 -29,-17l-27 -23c-11,-8 -19,-19 -25,-32 -6,-13 -9,-26 -9,-39l0 -124c0,-14 3,-27 9,-40 6,-13 14,-24 25,-33l27 -21c9,-8 19,-13 29,-17 10,-4 20,-5 31,-5z"/>
  <path class="fil1" d="M9110 13266l86 0c11,0 19,2 26,8 6,6 10,14 10,23l0 395 58 0c10,0 19,3 25,8 6,6 10,14 10,23 0,10 -4,17 -10,23 -7,6 -15,9 -25,9l-180 0c-11,0 -19,-3 -26,-9 -6,-6 -9,-13 -9,-23 0,-9 3,-17 10,-23 6,-5 15,-8 25,-8l57 0 0 -363 -57 0c-11,0 -19,-3 -26,-9 -6,-5 -9,-13 -9,-23 0,-9 3,-17 10,-23 6,-6 15,-8 25,-8z"/>
  <path class="fil1" d="M9632 13461c-3,0 -6,1 -10,2 -3,2 -6,4 -10,6l-27 22c-3,3 -6,7 -8,11 -2,4 -3,9 -3,13l0 124c0,4 1,9 3,13 2,4 5,7 8,10l28 23c3,2 6,4 9,5 4,1 7,2 10,2l70 0c3,0 6,-1 10,-2 3,-1 7,-3 9,-5l27 -23c4,-2 6,-6 9,-10 2,-5 3,-9 3,-13l0 -124c0,-4 -1,-9 -3,-13 -2,-4 -5,-8 -8,-10l-28 -23c-3,-2 -6,-4 -10,-6 -3,-1 -6,-2 -9,-2l-70 0zm0 -62l70 0c10,0 21,1 31,5 11,4 20,10 29,17l27 21c11,9 19,20 25,33 6,13 9,26 9,40l0 124c0,13 -3,27 -9,39 -6,13 -14,24 -25,32l-27 23c-9,7 -18,13 -29,16 -10,4 -21,6 -31,6l-70 0c-11,0 -21,-2 -31,-5 -10,-4 -20,-10 -29,-17l-27 -23c-11,-8 -19,-19 -25,-32 -6,-12 -9,-26 -9,-39l0 -124c0,-14 3,-27 9,-40 6,-13 14,-24 25,-33l27 -21c9,-8 19,-13 29,-17 10,-4 20,-5 31,-5z"/>
  <path class="fil1" d="M10071 13595c-8,0 -15,3 -21,9 -6,6 -9,14 -9,22l0 35c0,8 3,16 9,22 6,6 13,9 22,9l84 0 69 -39 -1 -28c0,-8 -3,-16 -9,-21 -6,-6 -14,-9 -22,-9l-122 0zm4 -196l113 0c25,0 47,8 65,26 18,18 28,40 29,67l8 227 0 1c0,10 -3,18 -9,25 -6,7 -13,10 -22,10 -9,0 -16,-3 -21,-8 -6,-6 -10,-14 -11,-24l-37 24c-4,2 -9,4 -14,6 -5,1 -10,2 -14,2l-90 0c-26,0 -48,-9 -67,-27 -18,-19 -27,-41 -27,-67l0 -35c0,-26 9,-48 28,-67 18,-18 40,-27 66,-27l121 0c5,0 10,0 15,1 4,1 8,2 13,4l-3 -45c0,-9 -3,-16 -9,-22 -5,-5 -13,-8 -21,-8l-113 0c-11,0 -19,-3 -25,-8 -6,-6 -9,-14 -9,-24 0,-9 3,-17 9,-23 7,-6 15,-8 25,-8z"/>
  <path class="fil1" d="M10560 13462c-7,0 -14,3 -21,8 0,1 -1,1 -1,1l-21 17c-3,2 -5,5 -7,9 -1,4 -2,8 -2,12l0 135c0,4 1,8 2,13 2,4 4,7 7,9l21 16c0,1 1,1 1,1 7,6 14,9 21,9l49 0c4,0 7,-1 11,-3 3,-1 7,-3 11,-7l54 -43c2,-2 4,-5 6,-9 1,-4 2,-9 2,-13l0 -81c0,-4 -1,-9 -2,-13 -2,-4 -4,-7 -6,-9l-54 -43c-4,-3 -7,-5 -11,-7 -3,-1 -7,-2 -11,-2l-49 0zm197 -161l0 419c0,10 -3,18 -9,25 -6,7 -14,10 -23,10 -10,0 -18,-3 -23,-9 -6,-7 -9,-15 -9,-26l0 -7 -24 20c-7,7 -17,13 -27,16 -11,4 -22,6 -33,6l-49 0c-11,0 -21,-2 -32,-5 -10,-4 -19,-10 -28,-17l-22 -16c-11,-8 -19,-19 -25,-32 -6,-13 -9,-27 -9,-41l0 -137c0,-13 3,-25 10,-39 6,-13 14,-23 24,-31l22 -16c9,-8 18,-13 28,-17 10,-4 21,-5 32,-5l49 0c11,0 22,2 33,5 10,4 20,10 27,17l24 20 0 -140c0,-10 3,-19 9,-25 6,-7 13,-10 23,-10 9,0 17,3 23,9 6,7 9,15 9,26z"/>
  <path class="fil1" d="M11033 13461c-3,0 -6,1 -10,2 -3,2 -6,4 -10,6l-27 22c-3,3 -6,7 -8,11 -2,4 -3,9 -3,13l0 43 186 0 0 -43c0,-4 -1,-9 -3,-13 -2,-4 -5,-8 -8,-10l-28 -23c-3,-2 -6,-4 -10,-6 -3,-1 -6,-2 -10,-2l-69 0zm-1 -62l70 0c11,0 22,1 32,5 10,4 20,10 29,17l27 21c11,9 19,20 25,33 6,13 9,26 9,40l0 76c0,9 -3,16 -10,22 -6,6 -15,9 -25,9l-214 0 0 17c0,4 1,9 3,13 2,4 5,7 8,10l27 23c3,2 6,4 9,5 3,1 7,2 11,2l156 0c10,0 19,3 25,8 7,6 10,14 10,23 0,10 -3,17 -10,23 -6,6 -15,9 -25,9l-157 0c-10,0 -20,-2 -31,-5 -10,-4 -19,-10 -28,-17l-28 -23c-10,-8 -18,-19 -24,-32 -7,-13 -10,-26 -10,-39l0 -124c0,-14 3,-27 10,-40 6,-13 14,-24 24,-33l28 -21c9,-8 18,-13 28,-17 11,-4 21,-5 31,-5z"/>
  <path class="fil1" d="M11442 13434l0 33 53 -46c7,-7 17,-13 28,-17 11,-3 21,-5 32,-5l42 0c26,0 48,9 66,27 19,19 28,41 28,66l0 15c0,10 -3,19 -9,25 -6,7 -13,10 -23,10 -9,0 -17,-3 -22,-10 -6,-7 -9,-15 -9,-25l0 -15c0,-8 -3,-15 -9,-21 -7,-7 -14,-10 -22,-10l-42 0c-3,0 -7,1 -12,3 -4,2 -8,4 -10,6l-91 81 0 169c0,10 -3,19 -9,25 -6,7 -14,10 -23,10 -9,0 -17,-3 -23,-10 -6,-7 -9,-15 -9,-25l0 -286c0,-11 3,-20 9,-26 6,-6 14,-9 23,-9 9,0 17,3 23,9 6,7 9,15 9,26z"/>
  <path class="fil0" d="M11968 13295l0 188 109 0c5,0 9,2 12,5 4,3 5,6 5,11 0,4 -1,8 -5,11 -3,3 -7,4 -12,4l-141 0 0 -219c0,-5 2,-9 5,-12 2,-3 6,-5 11,-5 5,0 9,2 12,5 3,3 4,7 4,12z"/>
  <path class="fil0" d="M12206 13342l44 0c5,0 10,2 13,5 3,2 5,6 5,11l0 125 29 0c5,0 10,2 13,5 3,2 5,6 5,11 0,4 -2,8 -5,11 -3,3 -8,4 -13,4l-91 0c-5,0 -10,-1 -13,-4 -3,-3 -5,-7 -5,-11 0,-5 2,-8 5,-11 4,-3 8,-5 13,-5l29 0 0 -110 -29 0c-5,0 -10,-2 -13,-4 -3,-3 -5,-7 -5,-11 0,-5 2,-8 5,-11 4,-3 8,-5 13,-5zm31 -76l16 0c4,0 7,1 10,4 3,3 5,7 5,11l0 13c0,4 -2,8 -5,11 -4,2 -8,4 -13,4l-13 0c-5,0 -9,-2 -13,-4 -3,-3 -4,-7 -4,-11l0 -13c0,-5 1,-8 5,-11 3,-3 7,-4 12,-4z"/>
  <path class="fil0" d="M12483 13373c-2,0 -3,0 -5,1 -2,1 -4,2 -6,3l-27 21c-1,1 -2,2 -3,4 -1,2 -1,4 -1,7l0 38c0,3 0,5 1,7 1,2 2,3 3,4l27 21c2,1 4,2 6,3 2,1 4,1 5,1l25 0c2,0 4,0 5,0 2,-1 4,-2 6,-4l11 -8c1,-1 2,-2 3,-4 1,-2 2,-4 2,-6l0 -66c0,-1 -1,-3 -2,-5 -1,-2 -2,-4 -3,-5l-11 -8c-2,-1 -4,-3 -5,-3 -2,-1 -4,-1 -6,-1l-25 0zm-42 -78l0 68 12 -10c4,-3 9,-6 14,-8 5,-2 11,-3 16,-3l25 0c6,0 11,1 17,3 5,2 10,4 14,8l11 8c5,4 9,8 12,15 4,6 5,12 5,18l0 67c0,6 -1,12 -5,19 -3,6 -7,12 -12,15l-11 8c-4,4 -9,7 -14,8 -6,2 -11,3 -17,3l-25 0c-5,0 -11,-1 -16,-3 -5,-2 -10,-4 -14,-8l-12 -9 0 3c0,5 -1,9 -4,12 -3,3 -7,5 -12,5 -5,0 -9,-2 -12,-5 -3,-3 -4,-7 -4,-12l0 -202c0,-5 1,-9 4,-12 3,-3 7,-5 12,-5 5,0 8,2 11,5 3,3 5,7 5,12z"/>
  <path class="fil0" d="M12677 13359l0 16 27 -22c4,-3 9,-6 14,-8 6,-2 11,-3 17,-3l21 0c13,0 24,5 34,14 9,9 14,19 14,31l0 7c0,5 -2,10 -5,13 -3,3 -7,4 -11,4 -5,0 -9,-1 -12,-4 -3,-4 -5,-8 -5,-13l0 -7c0,-3 -1,-7 -4,-10 -3,-3 -7,-4 -11,-4l-21 0c-2,0 -4,0 -6,1 -3,1 -4,2 -6,3l-46 38 0 82c0,5 -1,9 -4,12 -3,3 -7,5 -12,5 -4,0 -8,-2 -11,-5 -3,-3 -5,-7 -5,-12l0 -138c0,-5 2,-9 5,-12 3,-3 6,-5 11,-5 5,0 9,2 12,5 3,3 4,7 4,12z"/>
  <path class="fil0" d="M12929 13437c-4,0 -7,1 -11,4 -3,3 -4,7 -4,11l0 17c0,4 1,7 4,10 3,3 7,4 11,4l43 0 35 -18 -1 -14c0,-4 -1,-7 -4,-10 -3,-3 -7,-4 -11,-4l-62 0zm2 -95l57 0c13,0 24,5 33,13 9,9 14,19 15,32l4 110 0 0c0,5 -2,9 -5,12 -3,3 -6,5 -11,5 -4,0 -8,-1 -11,-4 -3,-3 -4,-6 -5,-11l-19 11c-2,1 -4,2 -7,3 -2,1 -5,1 -7,1l-46 0c-13,0 -24,-4 -33,-13 -10,-9 -14,-20 -14,-32l0 -17c0,-13 4,-23 14,-32 9,-9 21,-14 33,-14l62 0c2,0 5,1 7,1 2,0 5,1 7,2l-1 -22c-1,-4 -2,-7 -5,-10 -3,-3 -7,-4 -11,-4l-57 0c-5,0 -10,-1 -13,-4 -3,-3 -4,-7 -4,-11 0,-5 1,-9 5,-11 3,-3 7,-5 12,-5z"/>
  <path class="fil0" d="M13150 13359l0 16 27 -22c4,-3 9,-6 14,-8 6,-2 11,-3 16,-3l22 0c13,0 24,5 33,14 10,9 14,19 14,31l0 7c0,5 -1,10 -4,13 -3,3 -7,4 -12,4 -4,0 -8,-1 -11,-4 -3,-4 -5,-8 -5,-13l0 -7c0,-3 -1,-7 -4,-10 -4,-3 -7,-4 -11,-4l-22 0c-1,0 -3,0 -6,1 -2,1 -4,2 -5,3l-46 38 0 82c0,5 -1,9 -4,12 -3,3 -7,5 -12,5 -5,0 -9,-2 -11,-5 -3,-3 -5,-7 -5,-12l0 -138c0,-5 2,-9 4,-12 3,-3 7,-5 12,-5 5,0 9,2 12,5 3,3 4,7 4,12z"/>
  <path class="fil0" d="M13387 13359l0 20 42 91 9 0 43 -91 0 -20c0,-5 1,-9 4,-12 3,-3 7,-5 12,-5 4,0 8,2 11,5 3,3 5,7 5,12l0 23c0,1 0,2 -1,4 0,1 -1,3 -2,5l-82 180c-1,2 -3,3 -6,5 -3,1 -6,2 -10,2l-40 0c-5,0 -10,-1 -13,-4 -3,-3 -5,-7 -5,-11 0,-5 2,-8 5,-11 4,-3 8,-5 13,-5l32 0 21 -46 -6 0c-3,0 -7,0 -10,-2 -2,-1 -4,-3 -5,-5l-47 -103c-1,-2 -2,-4 -2,-5 0,-1 -1,-3 -1,-4l0 -23c0,-5 2,-9 5,-12 3,-3 7,-5 11,-5 5,0 9,2 12,5 3,3 5,7 5,12z"/>
  <path class="fil2" d="M4501 13021l196 0c101,0 186,71 206,164l200 0c231,0 420,184 420,409l0 0c0,225 -189,409 -420,409l-392 0c-231,0 -420,-184 -420,-409l0 0c0,-138 0,-239 0,-368l0 0c0,-113 95,-205 210,-205z"/>
  <rect class="fil0" x="4359" y="13253" width="1095" height="682" rx="374" ry="341"/>
  <path class="fil1" d="M4932 13390c46,-41 104,-65 166,-69l0 64c-47,3 -89,21 -122,50l-44 -45z"/>
  <path class="fil3" d="M4909 13776c-41,-46 -65,-105 -69,-166l64 0c3,46 22,88 50,121l-45 45z"/>
  <path class="fil4" d="M5295 13798c-46,41 -105,65 -166,68l0 -63c46,-3 88,-21 121,-50l45 45z"/>
  <path class="fil5" d="M5386 13610c-4,61 -28,120 -69,165l-45 -44c29,-33 47,-75 51,-121l63 0z"/>
  <path class="fil6" d="M5317 13412c41,46 65,105 69,166l-63 0c-4,-46 -22,-88 -51,-121l45 -45z"/>
  <path class="fil7" d="M5129 13321c61,4 120,28 166,69l-45 45c-33,-29 -75,-47 -121,-50l0 -64z"/>
  <path class="fil8" d="M4909 13412c-40,46 -65,105 -68,166l63 0c3,-46 22,-88 50,-121l-45 -45z"/>
  <path class="fil9" d="M4932 13798c46,41 104,65 166,68l0 -63c-47,-3 -89,-21 -122,-50l-44 45z"/>
 </g>
</svg>
