<?xml version="1.0" encoding="UTF-8"?>
<!DOCTYPE svg PUBLIC "-//W3C//DTD SVG 1.1//EN" "http://www.w3.org/Graphics/SVG/1.1/DTD/svg11.dtd">
<!-- Creator: CorelDRAW X7 -->
<svg xmlns="http://www.w3.org/2000/svg" xml:space="preserve" width="210mm" height="297mm" version="1.1" style="shape-rendering:geometricPrecision; text-rendering:geometricPrecision; image-rendering:optimizeQuality; fill-rule:evenodd; clip-rule:evenodd"
viewBox="0 0 21000 29700"
 xmlns:xlink="http://www.w3.org/1999/xlink">
 <defs>
  <style type="text/css">
   <![CDATA[
    .fil0 {fill:white}
   ]]>
  </style>
 </defs>
 <g id="Layer_x0020_1">
  <metadata id="CorelCorpID_0Corel-Layer"/>
  <path class="fil0" d="M9638 6612l401 0c208,0 382,145 422,336l410 0c474,0 862,377 862,839l0 0c0,461 -388,838 -862,838l-802 0c-474,0 -862,-377 -862,-838l0 0c0,-283 0,-491 0,-756l0 0c0,-230 194,-419 431,-419zm408 476l847 0c385,0 699,314 699,699l0 0c0,384 -314,698 -699,698l-847 0c-385,0 -699,-314 -699,-698l0 0c0,-385 314,-699 699,-699z"/>
  <path class="fil0" d="M10521 7369c94,-84 214,-134 340,-141l0 129c-95,7 -181,45 -249,103l-91 -91z"/>
  <path class="fil0" d="M10475 8159c-84,-94 -135,-214 -142,-340l131 0c7,94 44,180 102,248l-91 92z"/>
  <path class="fil0" d="M11265 8204c-94,84 -214,134 -340,141l0 -129c94,-7 181,-45 248,-103l92 91z"/>
  <path class="fil0" d="M11451 7819c-7,126 -57,245 -140,340l-92 -92c58,-68 96,-154 103,-248l129 0z"/>
  <path class="fil0" d="M11310 7414c84,94 134,214 141,340l-129 0c-7,-95 -45,-181 -103,-248l91 -92z"/>
  <path class="fil0" d="M10925 7228c126,7 246,57 340,141l-92 91c-67,-58 -154,-96 -248,-103l0 -129z"/>
  <path class="fil0" d="M10475 7414c-84,94 -134,214 -141,340l130 0c7,-94 44,-180 102,-248l-91 -92z"/>
  <path class="fil0" d="M10521 8204c94,84 214,134 340,141l0 -129c-95,-7 -181,-45 -249,-103l-91 91z"/>
 </g>
</svg>
