<?xml version="1.0" encoding="UTF-8"?>
<!DOCTYPE svg PUBLIC "-//W3C//DTD SVG 1.1//EN" "http://www.w3.org/Graphics/SVG/1.1/DTD/svg11.dtd">
<!-- Creator: CorelDRAW X7 -->
<svg xmlns="http://www.w3.org/2000/svg" xml:space="preserve" width="210mm" height="297mm" version="1.1" style="shape-rendering:geometricPrecision; text-rendering:geometricPrecision; image-rendering:optimizeQuality; fill-rule:evenodd; clip-rule:evenodd"
viewBox="0 0 21000 29700"
 xmlns:xlink="http://www.w3.org/1999/xlink">
 <defs>
  <style type="text/css">
   <![CDATA[
    .fil0 {fill:white}
   ]]>
  </style>
 </defs>
 <g id="Layer_x0020_1">
  <metadata id="CorelCorpID_0Corel-Layer"/>
  <path class="fil0" d="M9987 4296l184 0c96,0 176,67 195,155l189 0c218,0 397,174 397,386l0 0c0,213 -179,387 -397,387l-370 0c-218,0 -397,-174 -397,-387l0 0c0,-130 0,-225 0,-347l0 0c0,-107 89,-194 199,-194zm187 220l391 0c177,0 322,144 322,321l0 0c0,178 -145,322 -322,322l-391 0c-177,0 -321,-144 -321,-322l0 0c0,-177 144,-321 321,-321z"/>
  <path class="fil0" d="M10393 4645c44,-39 99,-62 157,-65l0 60c-44,3 -83,20 -115,47l-42 -42z"/>
  <path class="fil0" d="M10372 5009c-39,-43 -62,-99 -65,-157l60 0c3,44 20,84 47,115l-42 42z"/>
  <path class="fil0" d="M10736 5030c-43,39 -99,61 -157,65l0 -60c44,-3 84,-20 115,-47l42 42z"/>
  <path class="fil0" d="M10822 4852c-3,58 -26,113 -65,157l-42 -42c27,-31 44,-71 47,-115l60 0z"/>
  <path class="fil0" d="M10757 4666c39,43 61,98 65,156l-60 0c-3,-43 -20,-83 -47,-114l42 -42z"/>
  <path class="fil0" d="M10579 4580c58,3 114,26 157,65l-42 42c-31,-27 -71,-44 -115,-47l0 -60z"/>
  <path class="fil0" d="M10372 4666c-39,43 -61,99 -65,157l60 0c3,-44 20,-84 47,-115l-42 -42z"/>
  <path class="fil0" d="M10393 5030c44,39 99,61 157,65l0 -60c-44,-3 -83,-20 -115,-47l-42 42z"/>
  <path class="fil0" d="M7574 5480l248 0c10,0 17,3 23,8 6,5 9,12 9,21 0,8 -3,15 -9,20 -6,5 -14,8 -23,8l-192 0 0 87 137 0c9,0 16,2 22,8 6,5 9,12 9,20 0,9 -3,15 -9,21 -6,5 -13,8 -22,8l-137 0 0 206c0,10 -2,17 -8,23 -5,6 -12,9 -20,9 -8,0 -15,-3 -21,-9 -5,-6 -7,-14 -7,-23l0 -407z"/>
  <path class="fil0" d="M8051 5599l78 0c9,0 17,3 23,8 6,6 8,12 8,21l0 234 53 0c9,0 16,3 22,8 6,5 9,12 9,20 0,9 -3,16 -9,21 -6,5 -13,8 -22,8l-162 0c-9,0 -17,-3 -23,-8 -5,-5 -8,-12 -8,-21 0,-8 3,-15 9,-20 6,-5 13,-8 22,-8l52 0 0 -206 -52 0c-9,0 -17,-2 -23,-8 -5,-5 -8,-12 -8,-20 0,-8 3,-15 9,-20 6,-6 13,-9 22,-9zm56 -142l28 0c6,0 12,2 17,8 6,6 8,12 8,20l0 24c0,8 -2,15 -8,20 -6,5 -14,8 -23,8l-22 0c-10,0 -17,-2 -23,-8 -6,-5 -9,-12 -9,-20l0 -24c0,-8 3,-15 9,-21 6,-5 13,-7 23,-7z"/>
  <path class="fil0" d="M8470 5480l77 0c10,0 17,3 23,8 6,5 9,12 9,21l0 353 52 0c9,0 17,3 23,8 5,5 8,12 8,20 0,9 -3,16 -9,21 -5,5 -13,8 -22,8l-161 0c-10,0 -17,-3 -23,-8 -6,-5 -9,-12 -9,-21 0,-8 3,-15 9,-20 6,-5 14,-8 23,-8l51 0 0 -325 -51 0c-10,0 -18,-2 -23,-8 -6,-5 -9,-12 -9,-20 0,-9 3,-16 9,-21 6,-5 14,-8 23,-8z"/>
  <path class="fil0" d="M8938 5656c-3,0 -6,0 -9,1 -3,2 -6,3 -9,6l-24 20c-3,2 -6,5 -8,9 -1,4 -2,8 -2,12l0 38 166 0 0 -38c0,-4 -1,-8 -3,-12 -1,-4 -4,-7 -7,-9l-25 -20c-2,-3 -5,-4 -8,-6 -3,-1 -6,-1 -9,-1l-62 0zm-1 -57l63 0c9,0 19,2 28,5 10,4 18,9 26,15l25 20c9,7 16,17 22,29 5,11 8,24 8,36l0 67c0,9 -3,15 -9,21 -6,5 -13,8 -23,8l-191 0 0 15c0,4 1,8 2,11 2,4 5,7 8,10l24 20c3,2 5,4 8,5 3,1 6,1 10,1l139 0c10,0 17,3 23,8 6,5 9,12 9,20 0,9 -3,16 -9,21 -6,5 -13,8 -23,8l-140 0c-9,0 -19,-2 -28,-5 -9,-3 -17,-8 -25,-15l-25 -20c-9,-8 -17,-17 -22,-29 -6,-11 -8,-23 -8,-35l0 -111c0,-12 2,-25 8,-36 5,-12 13,-22 22,-29l25 -20c8,-6 16,-11 25,-15 9,-3 19,-5 28,-5z"/>
  <path class="fil0" d="M9403 5517l0 166 145 0c8,0 15,-3 21,-9 6,-6 9,-13 9,-21l0 -107c0,-7 -3,-14 -9,-20 -6,-7 -13,-9 -21,-9l-145 0zm-60 -60l205 0c24,0 45,8 63,26 18,18 27,39 27,63l0 107c0,25 -9,46 -26,64 -18,17 -39,26 -64,26l-145 0 0 142c0,10 -3,19 -9,25 -5,6 -12,9 -21,9 -9,0 -16,-3 -22,-10 -5,-6 -8,-14 -8,-24l0 -428z"/>
  <path class="fil0" d="M9844 5615l0 32 50 -44c7,-6 16,-12 26,-15 11,-4 21,-6 31,-6l39 0c24,0 45,9 63,26 17,18 26,38 26,63l0 13c0,10 -3,18 -8,24 -6,7 -13,10 -22,10 -9,0 -16,-3 -21,-10 -6,-6 -9,-14 -9,-24l0 -13c0,-8 -3,-15 -8,-21 -6,-6 -13,-9 -21,-9l-39 0c-4,0 -7,1 -12,3 -4,2 -7,4 -10,6l-85 76 0 159c0,10 -3,19 -9,25 -5,6 -12,9 -21,9 -9,0 -16,-3 -22,-10 -5,-6 -8,-14 -8,-24l0 -270c0,-10 3,-18 8,-24 5,-6 13,-9 22,-9 9,0 16,3 21,9 6,6 9,14 9,24z"/>
  <path class="fil0" d="M10340 5641c-3,0 -6,1 -9,2 -4,2 -7,3 -10,6l-25 21c-4,3 -6,6 -8,10 -2,4 -3,8 -3,12l0 41 175 0 0 -41c0,-4 -1,-8 -3,-12 -2,-4 -4,-7 -7,-10l-26 -21c-3,-3 -6,-4 -10,-6 -3,-1 -6,-2 -9,-2l-65 0zm-1 -59l66 0c10,0 20,2 30,5 10,4 19,9 27,16l26 21c10,8 18,18 24,30 5,13 8,25 8,38l0 71c0,9 -3,16 -9,22 -6,5 -14,8 -24,8l-202 0 0 16c0,4 1,8 3,12 2,4 4,8 8,10l25 22c3,2 6,3 8,4 3,1 7,2 11,2l147 0c10,0 18,3 24,8 6,6 9,13 9,22 0,9 -3,16 -9,22 -6,5 -14,8 -24,8l-148 0c-10,0 -20,-2 -29,-5 -10,-4 -19,-9 -27,-16l-26 -21c-10,-8 -18,-19 -24,-31 -5,-12 -8,-24 -8,-37l0 -117c0,-13 3,-25 8,-38 6,-12 14,-22 24,-30l26 -21c8,-7 17,-12 27,-16 9,-3 19,-5 29,-5z"/>
  <path class="fil0" d="M10729 5457l81 0c10,0 18,2 24,8 6,5 10,13 10,22l0 372 55 0c9,0 17,3 23,8 6,6 9,13 9,22 0,9 -3,16 -9,22 -6,5 -14,8 -23,8l-170 0c-10,0 -19,-3 -25,-8 -6,-6 -9,-13 -9,-22 0,-9 3,-16 10,-22 6,-5 14,-8 24,-8l54 0 0 -342 -54 0c-11,0 -19,-3 -25,-9 -6,-5 -9,-12 -9,-21 0,-9 3,-17 10,-22 6,-6 14,-8 24,-8z"/>
  <path class="fil0" d="M11222 5641c-3,0 -6,1 -9,2 -4,2 -7,3 -10,6l-25 21c-4,3 -6,6 -8,10 -2,4 -3,8 -3,12l0 117c0,4 1,8 3,12 2,4 4,8 8,10l25 22c3,2 6,3 9,4 3,1 7,2 10,2l65 0c4,0 7,-1 10,-2 3,-1 6,-3 9,-5l25 -21c4,-2 6,-5 8,-10 2,-4 3,-8 3,-12l0 -117c0,-4 -1,-8 -3,-12 -2,-4 -4,-7 -7,-10l-26 -21c-3,-3 -6,-4 -9,-6 -4,-1 -7,-2 -10,-2l-65 0zm-1 -59l66 0c10,0 20,2 30,5 10,4 19,9 27,16l26 21c10,8 18,18 24,30 5,13 8,25 8,38l0 117c0,13 -3,25 -8,37 -6,12 -14,23 -24,31l-26 21c-8,7 -17,12 -27,16 -10,3 -20,5 -30,5l-66 0c-10,0 -20,-2 -29,-5 -10,-4 -19,-9 -27,-16l-26 -21c-10,-8 -18,-19 -24,-31 -5,-12 -8,-24 -8,-37l0 -117c0,-13 3,-25 8,-38 6,-12 14,-22 24,-30l26 -21c8,-7 17,-12 27,-16 9,-3 19,-5 29,-5z"/>
  <path class="fil0" d="M11636 5768c-7,0 -14,2 -19,8 -6,6 -9,13 -9,21l0 33c0,8 3,15 8,20 6,6 13,9 21,9l80 0 64 -36 0 -27c0,-8 -3,-15 -9,-20 -6,-6 -13,-8 -21,-8l-115 0zm4 -186l106 0c24,0 45,8 62,25 17,17 26,38 27,64l8 214 0 1c0,9 -3,17 -8,23 -6,7 -13,10 -21,10 -8,0 -15,-3 -21,-8 -5,-5 -8,-13 -10,-22l-34 22c-4,2 -8,4 -13,6 -5,1 -10,2 -14,2l-85 0c-25,0 -46,-9 -63,-26 -17,-17 -26,-38 -26,-63l0 -33c0,-24 9,-45 26,-63 18,-17 39,-26 63,-26l114 0c5,0 10,0 14,1 4,1 9,2 13,4l-3 -42c0,-9 -3,-16 -8,-21 -6,-5 -12,-8 -21,-8l-106 0c-10,0 -18,-3 -24,-8 -5,-5 -8,-13 -8,-22 0,-9 3,-16 9,-22 6,-5 13,-8 23,-8z"/>
  <path class="fil0" d="M12098 5642c-6,0 -13,3 -20,8 0,0 0,1 -1,1l-19 15c-3,2 -5,5 -7,9 -1,4 -2,8 -2,11l0 128c0,4 1,8 2,12 2,4 4,7 7,9l19 15c1,1 1,1 1,1 7,5 14,8 20,8l46 0c4,0 7,-1 11,-2 3,-1 6,-4 10,-7l51 -41c2,-2 4,-5 5,-9 2,-3 3,-8 3,-12l0 -76c0,-4 -1,-8 -3,-12 -1,-4 -3,-7 -5,-8l-51 -41c-3,-3 -7,-5 -10,-7 -3,-1 -7,-2 -11,-2l-46 0zm186 -152l0 395c0,10 -3,18 -8,24 -6,7 -14,10 -22,10 -9,0 -17,-3 -22,-9 -6,-6 -8,-14 -8,-25l0 -6 -23 19c-7,7 -16,12 -26,16 -10,3 -20,5 -31,5l-46 0c-10,0 -20,-2 -30,-5 -10,-4 -19,-9 -27,-16l-21 -15c-9,-8 -17,-18 -23,-30 -6,-13 -9,-26 -9,-39l0 -130c0,-11 3,-24 9,-36 7,-13 14,-22 23,-29l21 -16c9,-7 18,-12 27,-16 10,-3 19,-5 30,-5l46 0c11,0 21,2 31,6 10,3 19,9 26,15l23 19 0 -132c0,-10 2,-18 8,-24 6,-6 13,-9 22,-9 8,0 16,3 22,9 5,6 8,14 8,24z"/>
  <path class="fil0" d="M12545 5641c-3,0 -6,1 -9,2 -3,2 -7,3 -10,6l-25 21c-4,3 -6,6 -8,10 -2,4 -3,8 -3,12l0 41 175 0 0 -41c0,-4 -1,-8 -3,-12 -1,-4 -4,-7 -7,-10l-26 -21c-3,-3 -6,-4 -9,-6 -3,-1 -7,-2 -10,-2l-65 0zm-1 -59l66 0c10,0 20,2 30,5 10,4 19,9 28,16l25 21c10,8 18,18 24,30 5,13 8,25 8,38l0 71c0,9 -3,16 -9,22 -6,5 -14,8 -24,8l-202 0 0 16c0,4 1,8 3,12 2,4 4,8 8,10l25 22c3,2 6,3 9,4 3,1 6,2 10,2l147 0c10,0 18,3 24,8 6,6 9,13 9,22 0,9 -3,16 -9,22 -6,5 -14,8 -24,8l-148 0c-10,0 -20,-2 -29,-5 -10,-4 -19,-9 -27,-16l-26 -21c-10,-8 -18,-19 -23,-31 -6,-12 -9,-24 -9,-37l0 -117c0,-13 3,-25 9,-38 5,-12 13,-22 23,-30l26 -21c8,-7 17,-12 27,-16 9,-3 19,-5 29,-5z"/>
  <path class="fil0" d="M12931 5615l0 32 50 -44c7,-6 16,-12 26,-15 11,-4 21,-6 31,-6l39 0c25,0 45,9 63,26 18,18 26,38 26,63l0 13c0,10 -2,18 -8,24 -6,7 -13,10 -22,10 -8,0 -16,-3 -21,-10 -6,-6 -9,-14 -9,-24l0 -13c0,-8 -2,-15 -8,-21 -6,-6 -13,-9 -21,-9l-39 0c-3,0 -7,1 -12,3 -4,2 -7,4 -9,6l-86 76 0 159c0,10 -3,19 -8,25 -6,6 -13,9 -22,9 -9,0 -16,-3 -22,-10 -5,-6 -8,-14 -8,-24l0 -270c0,-10 3,-18 8,-24 6,-6 13,-9 22,-9 9,0 16,3 22,9 5,6 8,14 8,24z"/>
  <path class="fil0" d="M11706 6187l0 178 102 0c5,0 10,1 13,4 3,3 4,6 4,10 0,5 -1,8 -4,11 -4,2 -8,4 -13,4l-132 0 0 -207c0,-5 1,-9 4,-11 3,-3 6,-5 11,-5 4,0 8,2 11,5 3,3 4,7 4,11z"/>
  <path class="fil0" d="M11931 6232l41 0c5,0 9,1 12,4 3,2 5,6 5,10l0 119 28 0c5,0 9,1 12,4 3,2 4,6 4,10 0,5 -1,8 -4,11 -3,2 -7,4 -12,4l-86 0c-5,0 -9,-2 -12,-4 -4,-3 -5,-6 -5,-11 0,-4 1,-7 5,-10 3,-3 7,-4 12,-4l27 0 0 -105 -27 0c-5,0 -10,-1 -13,-3 -3,-3 -4,-7 -4,-11 0,-4 1,-8 5,-10 3,-3 7,-4 12,-4zm29 -73l15 0c4,0 7,2 10,4 2,3 4,7 4,11l0 12c0,4 -2,7 -5,10 -3,3 -7,4 -12,4l-12 0c-5,0 -9,-1 -12,-4 -3,-3 -5,-6 -5,-10l0 -12c0,-5 2,-8 5,-11 3,-3 7,-4 12,-4z"/>
  <path class="fil0" d="M12193 6260c-2,0 -4,1 -6,1 -1,1 -3,2 -5,4l-26 19c-1,1 -1,3 -2,4 -1,2 -1,4 -1,6l0 37c0,2 0,4 1,6 0,2 1,3 3,4l25 20c2,1 4,2 6,3 1,1 3,1 5,1l23 0c2,0 3,0 5,-1 2,-1 3,-2 5,-3l11 -8c1,-1 2,-2 3,-4 1,-2 1,-4 1,-6l0 -61c0,-2 0,-4 -1,-6 -1,-2 -2,-3 -3,-4l-10 -7c-2,-2 -4,-3 -6,-4 -1,0 -3,-1 -5,-1l-23 0zm-40 -73l0 64 11 -9c4,-3 8,-6 13,-8 5,-1 10,-2 16,-2l23 0c5,0 11,0 16,2 4,2 9,4 13,8l11 7c4,4 8,8 11,14 3,6 5,12 5,18l0 62c0,6 -2,12 -5,18 -3,7 -7,12 -11,15l-11 8c-4,3 -9,6 -14,7 -4,2 -10,3 -15,3l-23 0c-6,0 -11,-1 -16,-3 -5,-2 -9,-4 -13,-7l-11 -10 0 4c0,4 -2,8 -5,11 -2,3 -6,5 -11,5 -4,0 -8,-2 -11,-5 -2,-3 -4,-7 -4,-11l0 -191c0,-5 2,-9 4,-11 3,-3 7,-5 11,-5 5,0 8,2 11,5 3,3 5,7 5,11z"/>
  <path class="fil0" d="M12376 6248l0 15 25 -21c4,-3 8,-6 14,-8 5,-1 10,-2 15,-2l20 0c12,0 23,4 32,12 9,9 13,19 13,30l0 7c0,5 -1,8 -4,11 -3,3 -7,5 -11,5 -5,0 -8,-2 -11,-5 -3,-3 -4,-7 -4,-11l0 -7c0,-3 -2,-7 -5,-10 -3,-2 -6,-4 -10,-4l-20 0c-2,0 -4,1 -6,1 -2,1 -4,2 -5,3l-43 37 0 77c0,4 -2,8 -4,11 -3,3 -7,5 -11,5 -5,0 -8,-2 -11,-5 -3,-3 -5,-7 -5,-11l0 -130c0,-5 2,-9 5,-12 2,-3 6,-4 11,-4 4,0 8,1 11,4 2,3 4,7 4,12z"/>
  <path class="fil0" d="M12614 6321c-4,0 -8,1 -11,4 -2,3 -4,6 -4,10l0 16c0,4 2,7 4,10 3,2 7,4 11,4l40 0 33 -18 0 -12c0,-4 -2,-8 -5,-10 -3,-3 -6,-4 -10,-4l-58 0zm1 -89l54 0c12,0 23,4 32,12 8,8 13,18 13,30l4 103 0 1c0,4 -1,8 -4,11 -3,3 -6,5 -11,5 -4,0 -7,-2 -10,-4 -3,-3 -4,-6 -5,-11l-18 11c-2,1 -4,2 -6,3 -3,0 -5,1 -7,1l-43 0c-13,0 -23,-4 -32,-13 -9,-8 -13,-18 -13,-30l0 -16c0,-12 4,-22 13,-30 9,-9 20,-13 32,-13l58 0c2,0 5,0 7,1 2,0 4,1 6,1l-1 -20c0,-4 -2,-7 -4,-10 -3,-2 -7,-4 -11,-4l-54 0c-5,0 -9,-1 -12,-3 -2,-3 -4,-7 -4,-11 0,-4 2,-8 5,-10 3,-3 7,-4 11,-4z"/>
  <path class="fil0" d="M12822 6248l0 15 26 -21c3,-3 8,-6 13,-8 5,-1 10,-2 15,-2l20 0c13,0 23,4 32,12 9,9 14,19 14,30l0 7c0,5 -2,8 -5,11 -3,3 -6,5 -11,5 -4,0 -8,-2 -11,-5 -2,-3 -4,-7 -4,-11l0 -7c0,-3 -1,-7 -4,-10 -3,-2 -7,-4 -11,-4l-20 0c-1,0 -3,1 -5,1 -2,1 -4,2 -5,3l-44 37 0 77c0,4 -1,8 -4,11 -3,3 -6,5 -11,5 -4,0 -8,-2 -11,-5 -3,-3 -4,-7 -4,-11l0 -130c0,-5 1,-9 4,-12 3,-3 7,-4 11,-4 5,0 8,1 11,4 3,3 4,7 4,12z"/>
  <path class="fil0" d="M13046 6248l0 18 39 87 10 0 39 -87 0 -18c0,-5 2,-9 5,-12 2,-3 6,-4 11,-4 4,0 8,1 11,4 2,3 4,7 4,12l0 21c0,1 0,2 -1,4 0,1 -1,2 -2,4l-77 170c-1,2 -3,4 -6,5 -3,1 -6,2 -9,2l-38 0c-5,0 -9,-1 -12,-4 -3,-2 -5,-6 -5,-10 0,-4 2,-8 5,-11 3,-2 7,-4 12,-4l30 0 20 -43 -5 0c-4,0 -7,-1 -10,-2 -2,-2 -4,-3 -5,-6l-45 -97c0,-1 -1,-3 -1,-4 -1,-1 -1,-3 -1,-4l0 -21c0,-5 2,-9 4,-12 3,-3 7,-4 11,-4 5,0 9,1 11,4 3,3 5,7 5,12z"/>
 </g>
</svg>
