<?xml version="1.0" encoding="UTF-8"?>
<!DOCTYPE svg PUBLIC "-//W3C//DTD SVG 1.1//EN" "http://www.w3.org/Graphics/SVG/1.1/DTD/svg11.dtd">
<!-- Creator: CorelDRAW X7 -->
<svg xmlns="http://www.w3.org/2000/svg" xml:space="preserve" width="210mm" height="297mm" version="1.1" style="shape-rendering:geometricPrecision; text-rendering:geometricPrecision; image-rendering:optimizeQuality; fill-rule:evenodd; clip-rule:evenodd"
viewBox="0 0 21000 29700"
 xmlns:xlink="http://www.w3.org/1999/xlink">
 <defs>
  <style type="text/css">
   <![CDATA[
    .fil0 {fill:white}
   ]]>
  </style>
 </defs>
 <g id="Layer_x0020_1">
  <metadata id="CorelCorpID_0Corel-Layer"/>
  <path class="fil0" d="M5769 5444l263 0c11,0 19,2 25,8 6,6 9,13 9,22 0,8 -3,15 -9,21 -7,6 -15,9 -25,9l-202 0 0 91 144 0c10,0 17,3 23,9 7,5 10,13 10,22 0,8 -4,16 -10,21 -6,6 -14,9 -23,9l-144 0 0 218c0,10 -3,19 -9,25 -5,6 -13,9 -22,9 -8,0 -16,-3 -21,-9 -6,-7 -9,-15 -9,-25l0 -430z"/>
  <path class="fil0" d="M6275 5570l82 0c10,0 18,2 24,8 7,6 10,13 10,22l0 248 55 0c10,0 18,2 24,8 6,5 9,13 9,22 0,9 -3,16 -9,22 -6,5 -14,8 -24,8l-171 0c-10,0 -18,-3 -24,-8 -6,-6 -9,-13 -9,-22 0,-9 3,-16 9,-22 7,-6 15,-8 24,-8l55 0 0 -218 -55 0c-10,0 -18,-3 -24,-8 -6,-6 -9,-13 -9,-22 0,-9 3,-16 9,-22 7,-5 15,-8 24,-8zm59 -152l29 0c7,0 13,3 19,10 6,6 9,13 9,21l0 25c0,8 -3,16 -10,21 -6,6 -14,9 -24,9l-23 0c-10,0 -18,-3 -24,-9 -6,-5 -9,-12 -9,-21l0 -25c0,-9 3,-17 9,-22 6,-6 14,-9 24,-9z"/>
  <path class="fil0" d="M6718 5444l82 0c10,0 18,2 25,8 6,6 9,13 9,22l0 374 55 0c10,0 18,2 24,8 6,5 9,13 9,22 0,9 -3,16 -9,22 -6,5 -14,8 -24,8l-171 0c-10,0 -18,-3 -24,-8 -6,-6 -9,-13 -9,-22 0,-9 3,-16 9,-22 7,-6 15,-8 24,-8l55 0 0 -344 -55 0c-10,0 -18,-3 -24,-9 -6,-5 -9,-12 -9,-21 0,-9 3,-16 9,-22 7,-6 15,-8 24,-8z"/>
  <path class="fil0" d="M7214 5629c-3,0 -6,1 -9,2 -3,1 -7,3 -10,6l-26 21c-3,2 -5,6 -7,10 -2,4 -3,8 -3,12l0 41 176 0 0 -41c0,-4 -1,-8 -3,-12 -2,-4 -4,-7 -8,-10l-26 -21c-3,-3 -6,-5 -9,-6 -3,-1 -6,-2 -9,-2l-66 0zm-1 -59l67 0c10,0 20,1 30,5 10,4 19,9 27,16l26 20c10,8 18,19 23,31 6,12 9,25 9,38l0 72c0,8 -3,16 -9,21 -7,6 -15,9 -24,9l-203 0 0 16c0,4 1,8 3,12 2,4 4,7 7,10l26 21c3,3 6,4 9,5 3,1 6,2 10,2l148 0c10,0 18,2 24,8 6,6 9,13 9,22 0,9 -3,16 -9,22 -7,5 -15,8 -24,8l-149 0c-10,0 -20,-2 -29,-5 -10,-4 -19,-9 -28,-16l-25 -21c-10,-9 -18,-19 -24,-31 -6,-12 -9,-25 -9,-37l0 -118c0,-13 3,-26 9,-38 6,-12 14,-23 24,-31l25 -20c9,-7 18,-13 28,-16 9,-4 19,-5 29,-5z"/>
  <path class="fil0" d="M7706 5482l0 176 153 0c9,0 17,-3 23,-10 6,-6 9,-14 9,-22l0 -112c0,-9 -3,-16 -9,-23 -6,-6 -14,-9 -23,-9l-153 0zm-63 -64l216 0c27,0 49,10 68,29 19,18 28,41 28,67l0 112c0,26 -9,49 -28,68 -18,19 -41,28 -68,28l-153 0 0 151c0,10 -3,19 -9,25 -6,7 -13,10 -23,10 -9,0 -17,-3 -22,-10 -6,-7 -9,-15 -9,-25l0 -455z"/>
  <path class="fil0" d="M8173 5586l0 34 53 -46c8,-7 17,-13 28,-17 11,-4 22,-6 32,-6l42 0c26,0 48,10 67,28 18,18 27,40 27,66l0 15c0,10 -2,19 -8,25 -6,7 -14,10 -23,10 -10,0 -17,-3 -23,-10 -6,-7 -9,-15 -9,-25l0 -15c0,-8 -3,-15 -9,-21 -6,-7 -14,-10 -22,-10l-42 0c-3,0 -7,1 -12,3 -4,2 -8,4 -10,6l-91 80 0 170c0,10 -3,19 -9,25 -6,7 -13,10 -23,10 -9,0 -17,-3 -23,-10 -5,-7 -8,-15 -8,-25l0 -287c0,-10 3,-19 8,-25 6,-6 14,-10 23,-10 10,0 17,4 23,10 6,7 9,15 9,25z"/>
  <path class="fil0" d="M8698 5614c-3,0 -6,1 -9,2 -4,1 -7,3 -11,6l-26 22c-4,3 -7,7 -9,11 -2,4 -3,9 -3,13l0 43 186 0 0 -43c0,-4 -1,-9 -3,-13 -2,-4 -5,-8 -8,-10l-28 -23c-3,-3 -6,-5 -10,-6 -3,-1 -6,-2 -9,-2l-70 0zm0 -63l70 0c10,0 21,2 31,6 11,4 20,9 29,17l27 21c11,9 19,20 25,33 6,13 9,26 9,40l0 75c0,9 -3,17 -10,23 -6,6 -15,9 -25,9l-214 0 0 17c0,4 1,8 3,13 2,4 5,7 9,10l26 23c3,2 6,4 9,5 4,1 7,1 11,1l156 0c11,0 19,3 26,9 6,6 9,14 9,23 0,10 -3,17 -10,23 -6,6 -15,9 -25,9l-156 0c-11,0 -21,-2 -31,-6 -10,-3 -20,-9 -29,-16l-27 -23c-11,-8 -19,-19 -25,-32 -6,-13 -9,-26 -9,-39l0 -124c0,-14 3,-27 9,-40 6,-13 14,-24 25,-33l27 -21c9,-8 19,-13 29,-17 10,-4 20,-6 31,-6z"/>
  <path class="fil0" d="M9110 5418l86 0c11,0 19,3 26,9 6,6 10,14 10,23l0 394 58 0c10,0 19,3 25,9 6,6 10,14 10,23 0,10 -4,17 -10,23 -7,6 -15,9 -25,9l-180 0c-11,0 -19,-3 -26,-9 -6,-6 -9,-13 -9,-23 0,-9 3,-17 10,-23 6,-6 15,-9 25,-9l57 0 0 -362 -57 0c-11,0 -19,-3 -26,-9 -6,-6 -9,-13 -9,-23 0,-9 3,-17 10,-23 6,-6 15,-9 25,-9z"/>
  <path class="fil0" d="M9632 5614c-3,0 -6,1 -10,2 -3,1 -6,3 -10,6l-27 22c-3,3 -6,6 -8,11 -2,4 -3,8 -3,13l0 124c0,4 1,9 3,13 2,4 5,7 8,10l28 23c3,2 6,4 9,5 4,1 7,1 10,1l70 0c3,0 6,0 10,-1 3,-2 7,-3 9,-6l27 -22c4,-2 6,-6 9,-10 2,-5 3,-9 3,-13l0 -124c0,-5 -1,-9 -3,-13 -2,-5 -5,-8 -8,-10l-28 -23c-3,-3 -6,-5 -10,-6 -3,-1 -6,-2 -9,-2l-70 0zm0 -63l70 0c10,0 21,2 31,6 11,4 20,9 29,17l27 21c11,9 19,20 25,33 6,13 9,26 9,40l0 124c0,13 -3,26 -9,39 -6,13 -14,24 -25,32l-27 23c-9,7 -18,12 -29,16 -10,4 -21,6 -31,6l-70 0c-11,0 -21,-2 -31,-6 -10,-3 -20,-9 -29,-16l-27 -23c-11,-8 -19,-19 -25,-32 -6,-13 -9,-26 -9,-39l0 -124c0,-14 3,-27 9,-40 6,-13 14,-24 25,-33l27 -21c9,-8 19,-13 29,-17 10,-4 20,-6 31,-6z"/>
  <path class="fil0" d="M10071 5748c-8,0 -15,3 -21,9 -6,6 -9,13 -9,22l0 35c0,8 3,15 9,21 6,6 13,9 22,9l84 0 69 -38 -1 -28c0,-9 -3,-16 -9,-22 -6,-5 -14,-8 -22,-8l-122 0zm4 -197l113 0c25,0 47,9 65,27 18,18 28,40 29,67l8 227 0 1c0,10 -3,18 -9,25 -6,7 -13,10 -22,10 -9,0 -16,-3 -21,-8 -6,-6 -10,-14 -11,-24l-37 24c-4,2 -9,4 -14,6 -5,1 -10,2 -14,2l-90 0c-26,0 -48,-9 -67,-28 -18,-18 -27,-40 -27,-66l0 -35c0,-26 9,-48 28,-67 18,-18 40,-28 66,-28l121 0c5,0 10,1 15,2 4,0 8,2 13,4l-3 -45c0,-9 -3,-16 -9,-22 -5,-5 -13,-8 -21,-8l-113 0c-11,0 -19,-3 -25,-9 -6,-5 -9,-13 -9,-23 0,-9 3,-17 9,-23 7,-6 15,-9 25,-9z"/>
  <path class="fil0" d="M10560 5615c-7,0 -14,3 -21,8 0,1 -1,1 -1,1l-21 17c-3,2 -5,5 -7,9 -1,4 -2,8 -2,12l0 135c0,4 1,8 2,12 2,5 4,8 7,10l21 16c0,1 1,1 1,1 7,6 14,8 21,8l49 0c4,0 7,0 11,-2 3,-1 7,-4 11,-7l54 -43c2,-2 4,-5 6,-9 1,-5 2,-9 2,-13l0 -81c0,-5 -1,-9 -2,-13 -2,-4 -4,-7 -6,-9l-54 -43c-4,-3 -7,-6 -11,-7 -3,-1 -7,-2 -11,-2l-49 0zm197 -161l0 419c0,10 -3,18 -9,25 -6,7 -14,10 -23,10 -10,0 -18,-3 -23,-10 -6,-6 -9,-15 -9,-25l0 -7 -24 20c-7,7 -17,12 -27,16 -11,4 -22,6 -33,6l-49 0c-11,0 -21,-2 -32,-6 -10,-3 -19,-9 -28,-16l-22 -16c-11,-9 -19,-19 -25,-32 -6,-14 -9,-27 -9,-41l0 -138c0,-12 3,-25 10,-38 6,-13 14,-24 24,-31l22 -16c9,-8 18,-13 28,-17 10,-4 21,-6 32,-6l49 0c11,0 22,2 33,6 10,4 20,10 27,17l24 20 0 -140c0,-11 3,-19 9,-26 6,-6 13,-10 23,-10 9,0 17,4 23,10 6,7 9,15 9,26z"/>
  <path class="fil0" d="M11033 5614c-3,0 -6,1 -10,2 -3,1 -6,3 -10,6l-27 22c-3,3 -6,7 -8,11 -2,4 -3,9 -3,13l0 43 186 0 0 -43c0,-4 -1,-9 -3,-13 -2,-4 -5,-8 -8,-10l-28 -23c-3,-3 -6,-5 -10,-6 -3,-1 -6,-2 -10,-2l-69 0zm-1 -63l70 0c11,0 22,2 32,6 10,4 20,9 29,17l27 21c11,9 19,20 25,33 6,13 9,26 9,40l0 75c0,9 -3,17 -10,23 -6,6 -15,9 -25,9l-214 0 0 17c0,4 1,8 3,13 2,4 5,7 8,10l27 23c3,2 6,4 9,5 3,1 7,1 11,1l156 0c10,0 19,3 25,9 7,6 10,14 10,23 0,10 -3,17 -10,23 -6,6 -15,9 -25,9l-157 0c-10,0 -20,-2 -31,-6 -10,-3 -19,-9 -28,-16l-28 -23c-10,-8 -18,-19 -24,-32 -7,-13 -10,-26 -10,-39l0 -124c0,-14 3,-27 10,-40 6,-13 14,-24 24,-33l28 -21c9,-8 18,-13 28,-17 11,-4 21,-6 31,-6z"/>
  <path class="fil0" d="M11442 5586l0 34 53 -46c7,-7 17,-13 28,-17 11,-4 21,-6 32,-6l42 0c26,0 48,10 66,28 19,18 28,40 28,66l0 15c0,10 -3,19 -9,25 -6,7 -13,10 -23,10 -9,0 -17,-3 -22,-10 -6,-7 -9,-15 -9,-25l0 -15c0,-8 -3,-15 -9,-21 -7,-7 -14,-10 -22,-10l-42 0c-3,0 -7,1 -12,3 -4,2 -8,4 -10,6l-91 80 0 170c0,10 -3,19 -9,25 -6,7 -14,10 -23,10 -9,0 -17,-3 -23,-10 -6,-7 -9,-15 -9,-25l0 -287c0,-10 3,-19 9,-25 6,-6 14,-10 23,-10 9,0 17,4 23,10 6,7 9,15 9,25z"/>
  <path class="fil0" d="M11968 5448l0 188 109 0c5,0 9,2 12,5 4,2 5,6 5,11 0,4 -1,8 -5,11 -3,2 -7,4 -12,4l-141 0 0 -219c0,-5 2,-9 5,-12 2,-3 6,-5 11,-5 5,0 9,2 12,5 3,3 4,7 4,12z"/>
  <path class="fil0" d="M12206 5495l44 0c5,0 10,2 13,4 3,3 5,7 5,11l0 126 29 0c5,0 10,2 13,4 3,3 5,7 5,12 0,4 -2,8 -5,11 -3,2 -8,4 -13,4l-91 0c-5,0 -10,-2 -13,-4 -3,-3 -5,-7 -5,-11 0,-5 2,-9 5,-11 4,-3 8,-5 13,-5l29 0 0 -110 -29 0c-5,0 -10,-2 -13,-4 -3,-3 -5,-7 -5,-12 0,-4 2,-8 5,-10 4,-3 8,-5 13,-5zm31 -77l16 0c4,0 7,2 10,5 3,3 5,7 5,11l0 12c0,5 -2,9 -5,11 -4,3 -8,5 -13,5l-13 0c-5,0 -9,-2 -13,-4 -3,-3 -4,-7 -4,-12l0 -12c0,-5 1,-8 5,-11 3,-3 7,-5 12,-5z"/>
  <path class="fil0" d="M12483 5526c-2,0 -3,0 -5,1 -2,0 -4,2 -6,3l-27 21c-1,1 -2,2 -3,4 -1,2 -1,4 -1,6l0 39c0,3 0,5 1,7 1,2 2,3 3,4l27 21c2,1 4,2 6,3 2,1 4,1 5,1l25 0c2,0 4,0 5,-1 2,0 4,-1 6,-3l11 -8c1,-1 2,-3 3,-5 1,-2 2,-4 2,-6l0 -65c0,-1 -1,-3 -2,-5 -1,-2 -2,-4 -3,-5l-11 -8c-2,-2 -4,-3 -5,-3 -2,-1 -4,-1 -6,-1l-25 0zm-42 -78l0 68 12 -10c4,-3 9,-6 14,-8 5,-2 11,-3 16,-3l25 0c6,0 11,1 17,3 5,2 10,4 14,8l11 8c5,3 9,8 12,15 4,6 5,12 5,18l0 66c0,7 -1,13 -5,20 -3,6 -7,11 -12,15l-11 8c-4,4 -9,6 -14,8 -6,2 -11,3 -17,3l-25 0c-5,0 -11,-1 -16,-3 -5,-2 -10,-4 -14,-8l-12 -10 0 4c0,5 -1,9 -4,12 -3,3 -7,5 -12,5 -5,0 -9,-2 -12,-5 -3,-3 -4,-7 -4,-12l0 -202c0,-5 1,-9 4,-12 3,-3 7,-5 12,-5 5,0 8,2 11,5 3,3 5,7 5,12z"/>
  <path class="fil0" d="M12677 5512l0 16 27 -22c4,-3 9,-6 14,-8 6,-2 11,-3 17,-3l21 0c13,0 24,5 34,14 9,8 14,19 14,31l0 7c0,5 -2,9 -5,13 -3,3 -7,4 -11,4 -5,0 -9,-1 -12,-5 -3,-3 -5,-7 -5,-12l0 -7c0,-4 -1,-7 -4,-10 -3,-3 -7,-5 -11,-5l-21 0c-2,0 -4,1 -6,2 -3,1 -4,2 -6,3l-46 38 0 82c0,5 -1,9 -4,12 -3,3 -7,5 -12,5 -4,0 -8,-2 -11,-5 -3,-3 -5,-7 -5,-12l0 -138c0,-5 2,-9 5,-12 3,-3 6,-5 11,-5 5,0 9,2 12,5 3,3 4,7 4,12z"/>
  <path class="fil0" d="M12929 5590c-4,0 -7,1 -11,4 -3,3 -4,7 -4,11l0 17c0,4 1,7 4,10 3,3 7,4 11,4l43 0 35 -18 -1 -14c0,-4 -1,-7 -4,-10 -3,-3 -7,-4 -11,-4l-62 0zm2 -95l57 0c13,0 24,4 33,13 9,8 14,19 15,32l4 109 0 1c0,5 -2,9 -5,12 -3,3 -6,5 -11,5 -4,0 -8,-2 -11,-4 -3,-3 -4,-7 -5,-11l-19 11c-2,1 -4,2 -7,3 -2,0 -5,1 -7,1l-46 0c-13,0 -24,-5 -33,-13 -10,-9 -14,-20 -14,-32l0 -17c0,-13 4,-23 14,-32 9,-9 21,-14 33,-14l62 0c2,0 5,0 7,1 2,0 5,1 7,2l-1 -22c-1,-4 -2,-8 -5,-10 -3,-3 -7,-4 -11,-4l-57 0c-5,0 -10,-2 -13,-4 -3,-3 -4,-7 -4,-12 0,-4 1,-8 5,-11 3,-2 7,-4 12,-4z"/>
  <path class="fil0" d="M13150 5512l0 16 27 -22c4,-3 9,-6 14,-8 6,-2 11,-3 16,-3l22 0c13,0 24,5 33,14 10,8 14,19 14,31l0 7c0,5 -1,9 -4,13 -3,3 -7,4 -12,4 -4,0 -8,-1 -11,-5 -3,-3 -5,-7 -5,-12l0 -7c0,-4 -1,-7 -4,-10 -4,-3 -7,-5 -11,-5l-22 0c-1,0 -3,1 -6,2 -2,1 -4,2 -5,3l-46 38 0 82c0,5 -1,9 -4,12 -3,3 -7,5 -12,5 -5,0 -9,-2 -11,-5 -3,-3 -5,-7 -5,-12l0 -138c0,-5 2,-9 4,-12 3,-3 7,-5 12,-5 5,0 9,2 12,5 3,3 4,7 4,12z"/>
  <path class="fil0" d="M13387 5512l0 20 42 91 9 0 43 -91 0 -20c0,-5 1,-9 4,-12 3,-3 7,-5 12,-5 4,0 8,2 11,5 3,3 5,7 5,12l0 23c0,1 0,2 -1,4 0,1 -1,2 -2,5l-82 179c-1,2 -3,4 -6,6 -3,1 -6,2 -10,2l-40 0c-5,0 -10,-2 -13,-4 -3,-3 -5,-7 -5,-11 0,-5 2,-8 5,-11 4,-3 8,-5 13,-5l32 0 21 -46 -6 0c-3,0 -7,-1 -10,-2 -2,-1 -4,-3 -5,-6l-47 -102c-1,-2 -2,-4 -2,-5 0,-1 -1,-3 -1,-4l0 -23c0,-5 2,-9 5,-12 3,-3 7,-5 11,-5 5,0 9,2 12,5 3,3 5,7 5,12z"/>
  <path class="fil0" d="M4501 5174l196 0c101,0 186,71 206,164l200 0c231,0 420,184 420,409l0 0c0,225 -189,409 -420,409l-392 0c-231,0 -420,-184 -420,-409l0 0c0,-138 0,-239 0,-368l0 0c0,-113 95,-205 210,-205zm199 232l414 0c187,0 340,153 340,341l0 0c0,187 -153,341 -340,341l-414 0c-187,0 -341,-154 -341,-341l0 0c0,-188 154,-341 341,-341z"/>
  <path class="fil0" d="M4932 5543c46,-41 104,-65 166,-69l0 63c-47,4 -89,22 -122,51l-44 -45z"/>
  <path class="fil0" d="M4909 5928c-41,-45 -65,-104 -69,-165l64 0c3,46 22,88 50,121l-45 44z"/>
  <path class="fil0" d="M5295 5951c-46,41 -105,65 -166,68l0 -63c46,-3 88,-22 121,-50l45 45z"/>
  <path class="fil0" d="M5386 5762c-4,62 -28,120 -69,166l-45 -44c29,-33 47,-75 51,-122l63 0z"/>
  <path class="fil0" d="M5317 5565c41,46 65,105 69,166l-63 0c-4,-46 -22,-88 -51,-121l45 -45z"/>
  <path class="fil0" d="M5129 5474c61,4 120,28 166,69l-45 45c-33,-29 -75,-47 -121,-51l0 -63z"/>
  <path class="fil0" d="M4909 5565c-40,46 -65,105 -68,166l63 0c3,-46 22,-88 50,-121l-45 -45z"/>
  <path class="fil0" d="M4932 5951c46,41 104,65 166,68l0 -63c-47,-3 -89,-22 -122,-50l-44 45z"/>
 </g>
</svg>
