<?xml version="1.0" encoding="UTF-8"?>
<!DOCTYPE svg PUBLIC "-//W3C//DTD SVG 1.1//EN" "http://www.w3.org/Graphics/SVG/1.1/DTD/svg11.dtd">
<!-- Creator: CorelDRAW X7 -->
<svg xmlns="http://www.w3.org/2000/svg" xml:space="preserve" width="210mm" height="297mm" version="1.1" style="shape-rendering:geometricPrecision; text-rendering:geometricPrecision; image-rendering:optimizeQuality; fill-rule:evenodd; clip-rule:evenodd"
viewBox="0 0 21000 29700"
 xmlns:xlink="http://www.w3.org/1999/xlink">
 <defs>
  <style type="text/css">
   <![CDATA[
    .fil1 {fill:#2196F3}
    .fil0 {fill:#40C4FF}
    .fil2 {fill:#FFA000}
    .fil8 {fill:#FFB300}
    .fil3 {fill:#FFC107}
    .fil9 {fill:#FFCA28}
    .fil4 {fill:#FFD54F}
    .fil5 {fill:#FFE082}
    .fil6 {fill:#FFECB3}
    .fil7 {fill:#FFF8E1}
   ]]>
  </style>
 </defs>
 <g id="Layer_x0020_1">
  <metadata id="CorelCorpID_0Corel-Layer"/>
  <path class="fil0" d="M9987 9607l184 0c96,0 176,67 195,155l189 0c218,0 397,173 397,386l0 0c0,213 -179,386 -397,386l-370 0c-218,0 -397,-173 -397,-386l0 0c0,-130 0,-226 0,-348l0 0c0,-106 89,-193 199,-193z"/>
  <rect class="fil1" x="9853" y="9826" width="1034" height="644" rx="353" ry="322"/>
  <path class="fil2" d="M10393 9956c44,-39 99,-62 157,-65l0 59c-44,3 -83,21 -115,48l-42 -42z"/>
  <path class="fil3" d="M10372 10320c-39,-44 -62,-99 -65,-157l60 0c3,43 20,83 47,114l-42 43z"/>
  <path class="fil4" d="M10736 10341c-43,38 -99,61 -157,64l0 -59c44,-3 84,-21 115,-48l42 43z"/>
  <path class="fil5" d="M10822 10163c-3,58 -26,113 -65,157l-42 -43c27,-31 44,-71 47,-114l60 0z"/>
  <path class="fil6" d="M10757 9977c39,43 61,98 65,156l-60 0c-3,-43 -20,-83 -47,-114l42 -42z"/>
  <path class="fil7" d="M10579 9891c58,3 114,26 157,65l-42 42c-31,-27 -71,-45 -115,-48l0 -59z"/>
  <path class="fil8" d="M10372 9977c-39,43 -61,98 -65,156l60 0c3,-43 20,-83 47,-114l-42 -42z"/>
  <path class="fil9" d="M10393 10341c44,38 99,61 157,64l0 -59c-44,-3 -83,-21 -115,-48l-42 43z"/>
  <path class="fil1" d="M7574 10791l248 0c10,0 17,2 23,8 6,5 9,12 9,20 0,8 -3,15 -9,21 -6,5 -14,8 -23,8l-192 0 0 86 137 0c9,0 16,3 22,8 6,6 9,12 9,21 0,8 -3,15 -9,20 -6,6 -13,8 -22,8l-137 0 0 207c0,9 -2,17 -8,23 -5,6 -12,8 -20,8 -8,0 -15,-2 -21,-8 -5,-6 -7,-14 -7,-23l0 -407z"/>
  <path class="fil1" d="M8051 10910l78 0c9,0 17,3 23,8 6,5 8,12 8,20l0 235 53 0c9,0 16,2 22,7 6,6 9,12 9,21 0,8 -3,15 -9,21 -6,5 -13,7 -22,7l-162 0c-9,0 -17,-2 -23,-7 -5,-6 -8,-13 -8,-21 0,-8 3,-15 9,-20 6,-6 13,-8 22,-8l52 0 0 -206 -52 0c-9,0 -17,-3 -23,-8 -5,-5 -8,-12 -8,-21 0,-8 3,-14 9,-20 6,-5 13,-8 22,-8zm56 -143l28 0c6,0 12,3 17,9 6,6 8,12 8,20l0 23c0,9 -2,15 -8,21 -6,5 -14,8 -23,8l-22 0c-10,0 -17,-3 -23,-8 -6,-5 -9,-12 -9,-21l0 -23c0,-9 3,-16 9,-21 6,-5 13,-8 23,-8z"/>
  <path class="fil1" d="M8470 10791l77 0c10,0 17,2 23,8 6,5 9,12 9,20l0 354 52 0c9,0 17,2 23,7 5,6 8,12 8,21 0,8 -3,15 -9,21 -5,5 -13,7 -22,7l-161 0c-10,0 -17,-2 -23,-7 -6,-6 -9,-13 -9,-21 0,-8 3,-15 9,-20 6,-6 14,-8 23,-8l51 0 0 -325 -51 0c-10,0 -18,-3 -23,-8 -6,-5 -9,-12 -9,-21 0,-8 3,-15 9,-20 6,-6 14,-8 23,-8z"/>
  <path class="fil1" d="M8938 10966c-3,0 -6,1 -9,2 -3,1 -6,3 -9,5l-24 20c-3,3 -6,6 -8,10 -1,4 -2,8 -2,11l0 39 166 0 0 -39c0,-3 -1,-7 -3,-11 -1,-4 -4,-7 -7,-9l-25 -21c-2,-2 -5,-4 -8,-5 -3,-1 -6,-2 -9,-2l-62 0zm-1 -56l63 0c9,0 19,2 28,5 10,4 18,8 26,15l25 19c9,8 16,18 22,29 5,12 8,24 8,36l0 68c0,8 -3,15 -9,20 -6,6 -13,8 -23,8l-191 0 0 15c0,4 1,8 2,12 2,4 5,7 8,9l24 21c3,2 5,3 8,4 3,1 6,2 10,2l139 0c10,0 17,2 23,8 6,5 9,12 9,20 0,8 -3,15 -9,21 -6,5 -13,7 -23,7l-140 0c-9,0 -19,-1 -28,-4 -9,-4 -17,-9 -25,-15l-25 -21c-9,-7 -17,-17 -22,-28 -6,-12 -8,-24 -8,-36l0 -111c0,-12 2,-24 8,-36 5,-11 13,-21 22,-29l25 -19c8,-7 16,-12 25,-15 9,-3 19,-5 28,-5z"/>
  <path class="fil2" d="M9403 10827l0 166 145 0c8,0 15,-3 21,-9 6,-6 9,-13 9,-21l0 -106c0,-8 -3,-15 -9,-21 -6,-6 -13,-9 -21,-9l-145 0zm-60 -60l205 0c24,0 45,9 63,27 18,17 27,38 27,63l0 106c0,25 -9,47 -26,64 -18,18 -39,27 -64,27l-145 0 0 142c0,10 -3,18 -9,24 -5,6 -12,9 -21,9 -9,0 -16,-3 -22,-9 -5,-6 -8,-14 -8,-24l0 -429z"/>
  <path class="fil2" d="M9844 10926l0 31 50 -43c7,-7 16,-12 26,-16 11,-3 21,-5 31,-5l39 0c24,0 45,8 63,26 17,17 26,38 26,62l0 14c0,10 -3,18 -8,24 -6,6 -13,9 -22,9 -9,0 -16,-3 -21,-9 -6,-6 -9,-14 -9,-24l0 -14c0,-7 -3,-14 -8,-20 -6,-6 -13,-9 -21,-9l-39 0c-4,0 -7,1 -12,3 -4,1 -7,3 -10,6l-85 75 0 160c0,10 -3,18 -9,24 -5,6 -12,9 -21,9 -9,0 -16,-3 -22,-9 -5,-6 -8,-14 -8,-24l0 -270c0,-10 3,-19 8,-24 5,-6 13,-9 22,-9 9,0 16,3 21,9 6,6 9,14 9,24z"/>
  <path class="fil2" d="M10340 10952c-3,0 -6,1 -9,2 -4,1 -7,3 -10,5l-25 21c-4,3 -6,6 -8,10 -2,5 -3,9 -3,13l0 40 175 0 0 -40c0,-4 -1,-8 -3,-13 -2,-4 -4,-7 -7,-9l-26 -22c-3,-2 -6,-4 -10,-5 -3,-1 -6,-2 -9,-2l-65 0zm-1 -59l66 0c10,0 20,2 30,5 10,4 19,9 27,16l26 20c10,8 18,19 24,31 5,12 8,25 8,38l0 71c0,9 -3,16 -9,21 -6,6 -14,9 -24,9l-202 0 0 16c0,4 1,8 3,12 2,4 4,7 8,10l25 21c3,2 6,4 8,5 3,1 7,2 11,2l147 0c10,0 18,2 24,8 6,5 9,13 9,22 0,8 -3,16 -9,21 -6,6 -14,8 -24,8l-148 0c-10,0 -20,-1 -29,-5 -10,-3 -19,-8 -27,-15l-26 -22c-10,-8 -18,-18 -24,-30 -5,-12 -8,-25 -8,-37l0 -117c0,-13 3,-26 8,-38 6,-12 14,-23 24,-31l26 -20c8,-7 17,-13 27,-16 9,-3 19,-5 29,-5z"/>
  <path class="fil2" d="M10729 10767l81 0c10,0 18,3 24,9 6,5 10,12 10,21l0 373 55 0c9,0 17,2 23,8 6,5 9,12 9,22 0,8 -3,16 -9,21 -6,6 -14,8 -23,8l-170 0c-10,0 -19,-2 -25,-8 -6,-5 -9,-13 -9,-21 0,-9 3,-17 10,-22 6,-6 14,-8 24,-8l54 0 0 -343 -54 0c-11,0 -19,-3 -25,-8 -6,-6 -9,-13 -9,-22 0,-9 3,-16 10,-21 6,-6 14,-9 24,-9z"/>
  <path class="fil2" d="M11222 10952c-3,0 -6,1 -9,2 -4,1 -7,3 -10,5l-25 21c-4,3 -6,6 -8,10 -2,5 -3,9 -3,13l0 117c0,4 1,8 3,12 2,4 4,7 8,10l25 21c3,2 6,4 9,5 3,1 7,2 10,2l65 0c4,0 7,-1 10,-2 3,-1 6,-3 9,-5l25 -21c4,-3 6,-6 8,-10 2,-4 3,-8 3,-12l0 -117c0,-4 -1,-8 -3,-13 -2,-4 -4,-7 -7,-9l-26 -22c-3,-2 -6,-4 -9,-5 -4,-1 -7,-2 -10,-2l-65 0zm-1 -59l66 0c10,0 20,2 30,5 10,4 19,9 27,16l26 20c10,8 18,19 24,31 5,12 8,25 8,38l0 117c0,13 -3,25 -8,37 -6,12 -14,22 -24,30l-26 22c-8,6 -17,11 -27,15 -10,4 -20,5 -30,5l-66 0c-10,0 -20,-1 -29,-5 -10,-3 -19,-8 -27,-15l-26 -22c-10,-8 -18,-18 -24,-30 -5,-12 -8,-24 -8,-37l0 -117c0,-13 3,-26 8,-38 6,-12 14,-23 24,-31l26 -20c8,-7 17,-13 27,-16 9,-3 19,-5 29,-5z"/>
  <path class="fil2" d="M11636 11078c-7,0 -14,3 -19,9 -6,6 -9,13 -9,20l0 34c0,8 3,14 8,20 6,6 13,9 21,9l80 0 64 -37 0 -26c0,-8 -3,-15 -9,-21 -6,-5 -13,-8 -21,-8l-115 0zm4 -185l106 0c24,0 45,8 62,25 17,16 26,38 27,63l8 214 0 2c0,9 -3,17 -8,23 -6,6 -13,9 -21,9 -8,0 -15,-2 -21,-7 -5,-6 -8,-13 -10,-22l-34 22c-4,2 -8,4 -13,5 -5,2 -10,2 -14,2l-85 0c-25,0 -46,-8 -63,-25 -17,-18 -26,-39 -26,-63l0 -34c0,-24 9,-45 26,-62 18,-18 39,-27 63,-27l114 0c5,0 10,1 14,1 4,1 9,3 13,4l-3 -42c0,-8 -3,-15 -8,-20 -6,-6 -12,-8 -21,-8l-106 0c-10,0 -18,-3 -24,-8 -5,-6 -8,-13 -8,-22 0,-9 3,-16 9,-22 6,-6 13,-8 23,-8z"/>
  <path class="fil2" d="M12098 10953c-6,0 -13,2 -20,8 0,0 0,0 -1,0l-19 16c-3,2 -5,5 -7,9 -1,3 -2,7 -2,11l0 128c0,4 1,8 2,11 2,4 4,7 7,9l19 16c1,0 1,0 1,1 7,5 14,8 20,8l46 0c4,0 7,-1 11,-3 3,-1 6,-3 10,-6l51 -41c2,-2 4,-5 5,-9 2,-4 3,-8 3,-12l0 -76c0,-5 -1,-8 -3,-12 -1,-4 -3,-7 -5,-9l-51 -41c-3,-3 -7,-5 -10,-6 -3,-2 -7,-2 -11,-2l-46 0zm186 -152l0 395c0,10 -3,18 -8,24 -6,6 -14,9 -22,9 -9,0 -17,-2 -22,-9 -6,-6 -8,-14 -8,-24l0 -7 -23 20c-7,6 -16,11 -26,15 -10,4 -20,5 -31,5l-46 0c-10,0 -20,-1 -30,-5 -10,-3 -19,-8 -27,-15l-21 -16c-9,-7 -17,-17 -23,-30 -6,-12 -9,-25 -9,-38l0 -130c0,-12 3,-24 9,-36 7,-13 14,-23 23,-30l21 -15c9,-7 18,-13 27,-16 10,-3 19,-5 30,-5l46 0c11,0 21,2 31,5 10,4 19,9 26,16l23 19 0 -132c0,-10 2,-18 8,-24 6,-7 13,-10 22,-10 8,0 16,3 22,9 5,7 8,15 8,25z"/>
  <path class="fil2" d="M12545 10952c-3,0 -6,1 -9,2 -3,1 -7,3 -10,5l-25 21c-4,3 -6,6 -8,10 -2,5 -3,9 -3,13l0 40 175 0 0 -40c0,-4 -1,-8 -3,-13 -1,-4 -4,-7 -7,-9l-26 -22c-3,-2 -6,-4 -9,-5 -3,-1 -7,-2 -10,-2l-65 0zm-1 -59l66 0c10,0 20,2 30,5 10,4 19,9 28,16l25 20c10,8 18,19 24,31 5,12 8,25 8,38l0 71c0,9 -3,16 -9,21 -6,6 -14,9 -24,9l-202 0 0 16c0,4 1,8 3,12 2,4 4,7 8,10l25 21c3,2 6,4 9,5 3,1 6,2 10,2l147 0c10,0 18,2 24,8 6,5 9,13 9,22 0,8 -3,16 -9,21 -6,6 -14,8 -24,8l-148 0c-10,0 -20,-1 -29,-5 -10,-3 -19,-8 -27,-15l-26 -22c-10,-8 -18,-18 -23,-30 -6,-12 -9,-25 -9,-37l0 -117c0,-13 3,-26 9,-38 5,-12 13,-23 23,-31l26 -20c8,-7 17,-13 27,-16 9,-3 19,-5 29,-5z"/>
  <path class="fil2" d="M12931 10926l0 31 50 -43c7,-7 16,-12 26,-16 11,-3 21,-5 31,-5l39 0c25,0 45,8 63,26 18,17 26,38 26,62l0 14c0,10 -2,18 -8,24 -6,6 -13,9 -22,9 -8,0 -16,-3 -21,-9 -6,-6 -9,-14 -9,-24l0 -14c0,-7 -2,-14 -8,-20 -6,-6 -13,-9 -21,-9l-39 0c-3,0 -7,1 -12,3 -4,1 -7,3 -9,6l-86 75 0 160c0,10 -3,18 -8,24 -6,6 -13,9 -22,9 -9,0 -16,-3 -22,-9 -5,-6 -8,-14 -8,-24l0 -270c0,-10 3,-19 8,-24 6,-6 13,-9 22,-9 9,0 16,3 22,9 5,6 8,14 8,24z"/>
  <path class="fil1" d="M11706 11498l0 177 102 0c5,0 10,2 13,4 3,3 4,7 4,11 0,4 -1,8 -4,10 -4,3 -8,4 -13,4l-132 0 0 -206c0,-5 1,-9 4,-12 3,-3 6,-4 11,-4 4,0 8,1 11,4 3,3 4,7 4,12z"/>
  <path class="fil1" d="M11931 11542l41 0c5,0 9,2 12,4 3,3 5,6 5,11l0 118 28 0c5,0 9,2 12,4 3,3 4,7 4,11 0,4 -1,8 -4,10 -3,3 -7,4 -12,4l-86 0c-5,0 -9,-1 -12,-4 -4,-2 -5,-6 -5,-10 0,-4 1,-8 5,-11 3,-2 7,-4 12,-4l27 0 0 -104 -27 0c-5,0 -10,-1 -13,-4 -3,-3 -4,-6 -4,-10 0,-4 1,-8 5,-11 3,-2 7,-4 12,-4zm29 -72l15 0c4,0 7,1 10,4 2,3 4,6 4,10l0 12c0,4 -2,8 -5,10 -3,3 -7,5 -12,5l-12 0c-5,0 -9,-2 -12,-4 -3,-3 -5,-6 -5,-11l0 -12c0,-4 2,-8 5,-10 3,-3 7,-4 12,-4z"/>
  <path class="fil1" d="M12193 11571c-2,0 -4,0 -6,1 -1,1 -3,2 -5,3l-26 20c-1,1 -1,2 -2,4 -1,2 -1,4 -1,6l0 36c0,3 0,5 1,6 0,2 1,4 3,4l25 20c2,2 4,3 6,3 1,1 3,1 5,1l23 0c2,0 3,0 5,0 2,-1 3,-2 5,-4l11 -7c1,-1 2,-3 3,-4 1,-2 1,-4 1,-6l0 -62c0,-1 0,-3 -1,-5 -1,-2 -2,-3 -3,-4l-10 -8c-2,-1 -4,-3 -6,-3 -1,-1 -3,-1 -5,-1l-23 0zm-40 -73l0 64 11 -10c4,-3 8,-5 13,-7 5,-2 10,-3 16,-3l23 0c5,0 11,1 16,3 4,1 9,4 13,7l11 8c4,3 8,8 11,14 3,6 5,12 5,17l0 63c0,6 -2,12 -5,18 -3,6 -7,11 -11,15l-11 7c-4,4 -9,6 -14,8 -4,1 -10,2 -15,2l-23 0c-6,0 -11,-1 -16,-2 -5,-2 -9,-4 -13,-8l-11 -9 0 3c0,5 -2,9 -5,12 -2,3 -6,4 -11,4 -4,0 -8,-1 -11,-4 -2,-3 -4,-7 -4,-12l0 -190c0,-5 2,-9 4,-12 3,-3 7,-4 11,-4 5,0 8,1 11,4 3,3 5,7 5,12z"/>
  <path class="fil1" d="M12376 11558l0 15 25 -21c4,-3 8,-5 14,-7 5,-2 10,-3 15,-3l20 0c12,0 23,4 32,13 9,8 13,18 13,30l0 6c0,5 -1,9 -4,12 -3,3 -7,4 -11,4 -5,0 -8,-1 -11,-4 -3,-3 -4,-7 -4,-12l0 -6c0,-4 -2,-7 -5,-10 -3,-3 -6,-4 -10,-4l-20 0c-2,0 -4,0 -6,1 -2,1 -4,2 -5,3l-43 36 0 77c0,5 -2,9 -4,12 -3,3 -7,4 -11,4 -5,0 -8,-1 -11,-4 -3,-3 -5,-7 -5,-12l0 -130c0,-5 2,-9 5,-11 2,-3 6,-5 11,-5 4,0 8,2 11,5 2,3 4,6 4,11z"/>
  <path class="fil1" d="M12614 11632c-4,0 -8,1 -11,4 -2,2 -4,6 -4,10l0 16c0,3 2,7 4,9 3,3 7,4 11,4l40 0 33 -17 0 -13c0,-4 -2,-7 -5,-10 -3,-2 -6,-3 -10,-3l-58 0zm1 -90l54 0c12,0 23,4 32,12 8,8 13,18 13,31l4 103 0 1c0,4 -1,8 -4,11 -3,3 -6,4 -11,4 -4,0 -7,-1 -10,-3 -3,-3 -4,-7 -5,-11l-18 10c-2,2 -4,2 -6,3 -3,1 -5,1 -7,1l-43 0c-13,0 -23,-4 -32,-12 -9,-9 -13,-19 -13,-30l0 -16c0,-12 4,-22 13,-31 9,-8 20,-12 32,-12l58 0c2,0 5,0 7,0 2,1 4,1 6,2l-1 -20c0,-4 -2,-8 -4,-10 -3,-3 -7,-4 -11,-4l-54 0c-5,0 -9,-1 -12,-4 -2,-2 -4,-6 -4,-10 0,-5 2,-8 5,-11 3,-2 7,-4 11,-4z"/>
  <path class="fil1" d="M12822 11558l0 15 26 -21c3,-3 8,-5 13,-7 5,-2 10,-3 15,-3l20 0c13,0 23,4 32,13 9,8 14,18 14,30l0 6c0,5 -2,9 -5,12 -3,3 -6,4 -11,4 -4,0 -8,-1 -11,-4 -2,-3 -4,-7 -4,-12l0 -6c0,-4 -1,-7 -4,-10 -3,-3 -7,-4 -11,-4l-20 0c-1,0 -3,0 -5,1 -2,1 -4,2 -5,3l-44 36 0 77c0,5 -1,9 -4,12 -3,3 -6,4 -11,4 -4,0 -8,-1 -11,-4 -3,-3 -4,-7 -4,-12l0 -130c0,-5 1,-9 4,-11 3,-3 7,-5 11,-5 5,0 8,2 11,5 3,3 4,6 4,11z"/>
  <path class="fil1" d="M13046 11558l0 19 39 86 10 0 39 -86 0 -19c0,-5 2,-8 5,-11 2,-3 6,-5 11,-5 4,0 8,2 11,5 2,2 4,6 4,11l0 21c0,2 0,3 -1,4 0,1 -1,3 -2,5l-77 170c-1,2 -3,3 -6,5 -3,1 -6,2 -9,2l-38 0c-5,0 -9,-2 -12,-4 -3,-3 -5,-6 -5,-11 0,-4 2,-7 5,-10 3,-3 7,-4 12,-4l30 0 20 -44 -5 0c-4,0 -7,0 -10,-2 -2,-1 -4,-3 -5,-5l-45 -97c0,-2 -1,-3 -1,-4 -1,-2 -1,-3 -1,-5l0 -21c0,-5 2,-9 4,-11 3,-3 7,-5 11,-5 5,0 9,2 11,5 3,3 5,6 5,11z"/>
 </g>
</svg>
